<?xml version="1.0" encoding="UTF-8" standalone="no"?>
<!-- Created with Inkscape (http://www.inkscape.org/) -->

<svg
   width="2000"
   height="2000"
   viewBox="0 0 529.16667 529.16666"
   version="1.1"
   id="svg5"
   inkscape:export-filename="netflix.png"
   inkscape:export-xdpi="96"
   inkscape:export-ydpi="96"
   inkscape:version="1.2.1 (9c6d41e, 2022-07-14)"
   sodipodi:docname="netflix.svg"
   xmlns:inkscape="http://www.inkscape.org/namespaces/inkscape"
   xmlns:sodipodi="http://sodipodi.sourceforge.net/DTD/sodipodi-0.dtd"
   xmlns="http://www.w3.org/2000/svg"
   xmlns:svg="http://www.w3.org/2000/svg">
  <sodipodi:namedview
     id="namedview7"
     pagecolor="#ffffff"
     bordercolor="#000000"
     borderopacity="0.25"
     inkscape:showpageshadow="2"
     inkscape:pageopacity="0.0"
     inkscape:pagecheckerboard="0"
     inkscape:deskcolor="#d1d1d1"
     inkscape:document-units="mm"
     showgrid="false"
     showguides="true"
     inkscape:zoom="0.1992409"
     inkscape:cx="991.26233"
     inkscape:cy="1033.9243"
     inkscape:window-width="1440"
     inkscape:window-height="900"
     inkscape:window-x="0"
     inkscape:window-y="0"
     inkscape:window-maximized="0"
     inkscape:current-layer="layer1" />
  <defs
     id="defs2">
    <rect
       x="573.17957"
       y="-2122.3135"
       width="2873.6436"
       height="1502.6599"
       id="rect88576" />
    <rect
       x="-1193.0853"
       y="-4701.9702"
       width="3996.4773"
       height="2308.5354"
       id="rect88570" />
    <rect
       x="-1229.0612"
       y="-4722.1821"
       width="8085.9282"
       height="2425.7786"
       id="rect88564" />
    <rect
       x="2243.925"
       y="8738.1133"
       width="4198.2212"
       height="1246.2074"
       id="rect88506" />
    <rect
       x="-4053.3982"
       y="4726.2944"
       width="3620.822"
       height="2832.7607"
       id="rect88496" />
    <rect
       x="-2675.5632"
       y="7583.6958"
       width="2403.2004"
       height="1580.5089"
       id="rect88490" />
    <rect
       x="2393.3137"
       y="4613.6416"
       width="2666.0859"
       height="1185.9008"
       id="rect88380" />
    <rect
       x="1535.2596"
       y="4548.6606"
       width="3890.6426"
       height="1819.4644"
       id="rect88374" />
    <inkscape:path-effect
       effect="mirror_symmetry"
       start_point="1353.3975,78.301573"
       end_point="1353.3975,306.14973"
       center_point="1353.3975,192.22565"
       id="path-effect60255"
       is_visible="true"
       lpeversion="1.2"
       lpesatellites=""
       mode="free"
       discard_orig_path="false"
       fuse_paths="false"
       oposite_fuse="false"
       split_items="false"
       split_open="false"
       link_styles="false" />
    <inkscape:path-effect
       effect="mirror_symmetry"
       start_point="1353.3975,106.59782"
       end_point="1353.3975,190.29686"
       center_point="1353.3975,148.44734"
       id="path-effect60251"
       is_visible="true"
       lpeversion="1.2"
       lpesatellites=""
       mode="free"
       discard_orig_path="false"
       fuse_paths="false"
       oposite_fuse="false"
       split_items="false"
       split_open="false"
       link_styles="false" />
    <inkscape:path-effect
       effect="mirror_symmetry"
       start_point="441.64429,663.57847"
       end_point="441.64429,673.75489"
       center_point="441.64429,668.66668"
       id="path-effect31305"
       is_visible="true"
       lpeversion="1.2"
       lpesatellites=""
       mode="free"
       discard_orig_path="false"
       fuse_paths="false"
       oposite_fuse="false"
       split_items="false"
       split_open="false"
       link_styles="false" />
    <inkscape:path-effect
       effect="mirror_symmetry"
       start_point="441.64429,653.51345"
       end_point="441.64429,673.75489"
       center_point="441.64429,663.63417"
       id="path-effect31301"
       is_visible="true"
       lpeversion="1.2"
       lpesatellites=""
       mode="free"
       discard_orig_path="false"
       fuse_paths="false"
       oposite_fuse="false"
       split_items="false"
       split_open="false"
       link_styles="false" />
    <inkscape:path-effect
       effect="mirror_symmetry"
       start_point="441.64429,361.55336"
       end_point="441.64429,834.54673"
       center_point="441.64429,598.05004"
       id="path-effect31297"
       is_visible="true"
       lpeversion="1.2"
       lpesatellites=""
       mode="free"
       discard_orig_path="false"
       fuse_paths="false"
       oposite_fuse="false"
       split_items="false"
       split_open="false"
       link_styles="false" />
    <inkscape:path-effect
       effect="mirror_symmetry"
       start_point="441.64429,577.98671"
       end_point="441.64429,597.67136"
       center_point="441.64429,587.82903"
       id="path-effect13070"
       is_visible="true"
       lpeversion="1.2"
       lpesatellites=""
       mode="free"
       discard_orig_path="false"
       fuse_paths="false"
       oposite_fuse="false"
       split_items="false"
       split_open="false"
       link_styles="false" />
    <inkscape:path-effect
       effect="mirror_symmetry"
       start_point="441.64429,362.75134"
       end_point="441.64429,577.9867"
       center_point="441.64429,470.36902"
       id="path-effect13066"
       is_visible="true"
       lpeversion="1.2"
       lpesatellites=""
       mode="free"
       discard_orig_path="false"
       fuse_paths="false"
       oposite_fuse="false"
       split_items="false"
       split_open="false"
       link_styles="false" />
    <inkscape:path-effect
       effect="mirror_symmetry"
       start_point="441.64429,411.03126"
       end_point="441.64429,614.83662"
       center_point="441.64429,512.93394"
       id="path-effect5597"
       is_visible="true"
       lpeversion="1.2"
       lpesatellites=""
       mode="free"
       discard_orig_path="false"
       fuse_paths="false"
       oposite_fuse="false"
       split_items="false"
       split_open="false"
       link_styles="false" />
    <inkscape:path-effect
       effect="mirror_symmetry"
       start_point="441.64429,92.645435"
       end_point="441.64429,361.55336"
       center_point="441.64429,227.0994"
       id="path-effect5459"
       is_visible="true"
       lpeversion="1.2"
       lpesatellites=""
       mode="free"
       discard_orig_path="false"
       fuse_paths="false"
       oposite_fuse="false"
       split_items="false"
       split_open="false"
       link_styles="false" />
    <inkscape:path-effect
       effect="mirror_symmetry"
       start_point="441.64429,153.41545"
       end_point="441.64429,361.55336"
       center_point="441.64429,257.4844"
       id="path-effect5451"
       is_visible="true"
       lpeversion="1.2"
       lpesatellites=""
       mode="free"
       discard_orig_path="false"
       fuse_paths="false"
       oposite_fuse="false"
       split_items="false"
       split_open="false"
       link_styles="false" />
  </defs>
  <g
     inkscape:label="Layer 1"
     inkscape:groupmode="layer"
     id="layer1">
    <rect
       style="fill:#e30000;fill-opacity:1;stroke:#010000;stroke-width:3.42755;stroke-linecap:round;stroke-linejoin:bevel;stroke-dasharray:none;stroke-opacity:1"
       id="rect80636"
       width="262.86911"
       height="262.86978"
       x="264.51517"
       y="1.7133265" />
    <path
       style="fill:none;stroke:#db0000;stroke-width:1.84009;stroke-linejoin:bevel"
       d="M 1.6460722,264.58311 H 527.38427"
       id="path245" />
    <path
       style="fill:none;stroke:#db0000;stroke-width:1.84009;stroke-linejoin:bevel"
       d="M 264.51517,264.58311 V 1.7133264"
       id="path301" />
    <rect
       style="fill:#e30000;fill-opacity:1;stroke:#000000;stroke-width:2.62869;stroke-linecap:round;stroke-linejoin:bevel;stroke-dasharray:none;stroke-opacity:1"
       id="rect45944"
       width="262.86911"
       height="262.86978"
       x="1.6460721"
       y="1.7133265" />
    <g
       id="g45890"
       transform="matrix(0.2628691,0,0,0.26286978,16.983501,3.5410029)">
      <path
         style="fill:none;stroke:#000000;stroke-width:5;stroke-linejoin:bevel;stroke-dasharray:none;stroke-opacity:1"
         d="m 203.65981,361.55336 c 47.98026,-87.8816 -17.77232,-272.462169 237.98448,-185.3533 m 237.98448,185.3533 C 631.64851,273.67176 697.40109,89.091191 441.64429,176.20006"
         id="path357"
         sodipodi:nodetypes="cc"
         inkscape:path-effect="#path-effect5451"
         inkscape:original-d="M 203.65981,361.55336 C 251.64007,273.67176 185.88749,89.091191 441.64429,176.20006"
         class="UnoptimicedTransforms" />
      <path
         style="fill:none;stroke:#000000;stroke-width:4.99999;stroke-linejoin:bevel;stroke-dasharray:none;stroke-opacity:1"
         d="M 203.65981,361.55336 C 217.83754,206.66277 189.10252,94.434479 441.64429,92.645435 M 679.62877,361.55336 C 665.45104,206.66277 694.18606,94.434479 441.64429,92.645435"
         id="path5457"
         sodipodi:nodetypes="cc"
         inkscape:path-effect="#path-effect5459"
         inkscape:original-d="M 203.65981,361.55336 C 217.83754,206.66277 189.10252,94.434479 441.64429,92.645435"
         class="UnoptimicedTransforms" />
      <path
         style="fill:none;fill-opacity:1;stroke:#000000;stroke-width:6.684;stroke-linejoin:bevel;stroke-dasharray:none;stroke-opacity:1"
         d="m 258.11887,319.97848 c 55.24865,-147.52335 102.39348,-4.5882 153.57068,0"
         id="path5461"
         sodipodi:nodetypes="cc"
         class="UnoptimicedTransforms" />
      <path
         style="fill:none;fill-opacity:1;stroke:#000000;stroke-width:6.684;stroke-linejoin:bevel;stroke-dasharray:none;stroke-opacity:1"
         d="m 258.11887,319.97848 c 55.24865,-147.52335 102.39348,-4.5882 153.57068,0"
         id="path5465"
         sodipodi:nodetypes="cc"
         class="UnoptimicedTransforms"
         transform="matrix(-1,0,0,1,884.82279,-3.912613e-4)" />
      <path
         id="path5525"
         style="fill:none;stroke:#000000;stroke-width:4.99999;stroke-linejoin:bevel"
         d="m 392.77278,384.25483 c -3.02105,17.3404 -42.42803,32.91099 -75.108,27.21745 -32.67997,-5.69353 -46.25769,-30.49516 -43.23663,-47.83555 3.02106,-17.34039 21.02224,-42.71728 53.7022,-37.02375 32.67996,5.69353 67.66348,40.30146 64.64243,57.64185 z"
         sodipodi:nodetypes="sssss" />
      <path
         id="path5528"
         style="fill:none;stroke:#000000;stroke-width:4.99999;stroke-linejoin:bevel"
         d="m 492.05001,384.25444 c 3.02105,17.3404 42.42803,32.91099 75.108,27.21745 32.67997,-5.69353 46.25769,-30.49516 43.23663,-47.83555 -3.02106,-17.34039 -21.02224,-42.71728 -53.7022,-37.02375 -32.67996,5.69353 -67.66348,40.30146 -64.64243,57.64185 z"
         sodipodi:nodetypes="sssss" />
      <path
         style="fill:none;stroke:#000000;stroke-width:15;stroke-linejoin:bevel;stroke-dasharray:none;stroke-opacity:1"
         d="m 281.35967,411.03126 10.49736,28.80963 C 262.94247,612.38888 278.6012,639.40741 441.64429,597.41627 m 160.28462,-186.38501 -10.49736,28.80963 c 28.91456,172.54799 13.25583,199.56652 -149.78726,157.57538"
         id="path5595"
         sodipodi:nodetypes="ccc"
         inkscape:path-effect="#path-effect5597"
         inkscape:original-d="m 281.35967,411.03126 10.49736,28.80963 C 262.94247,612.38888 278.6012,639.40741 441.64429,597.41627"
         class="UnoptimicedTransforms" />
      <path
         style="fill:none;stroke:#000000;stroke-width:4.99999;stroke-linejoin:bevel;stroke-dasharray:none;stroke-opacity:1"
         d="m 441.64429,597.41627 c -10.87245,1.80696 -16.48476,-6.17407 -25.41368,-17.97183 l -20.58963,-1.45773 22.80022,-135.4831 m 23.20309,154.91266 c 10.87245,1.80696 16.48476,-6.17407 25.41368,-17.97183 l 20.58963,-1.45773 -22.80022,-135.4831"
         id="path5648"
         sodipodi:nodetypes="ccc"
         class="UnoptimicedTransforms"
         inkscape:path-effect="#path-effect13070"
         inkscape:original-d="m 441.64429,597.41627 c -10.87245,1.80696 -16.48476,-6.17407 -25.41368,-17.97183 l -20.58963,-1.45773 22.80022,-135.4831" />
      <path
         style="fill:#000000;fill-opacity:1;stroke:none;stroke-width:158.462;stroke-linejoin:bevel;stroke-dasharray:none;stroke-opacity:1"
         d="m 787.02703,1295.0265 c -0.72138,-11.424 17.67862,-280.8611 22.38222,-327.7499 C 829.69548,765.049 871.94575,647.25806 955.58191,559.757 1073.7427,436.1359 1259.5709,377.53931 1579.2281,363.10475 c 212.9837,-9.61757 438.4703,14.44415 580.5989,61.95581 211.5459,70.71692 317.0132,200.90155 355.6708,439.02592 12.5956,77.5863 16.9218,123.96194 28.0886,301.10092 8.8044,139.6622 8.8548,137.9767 -3.0367,101.473 -13.3883,-41.0982 -24.2482,-93.0646 -44.6046,-213.4418 -28.8365,-170.52309 -44.495,-231.24396 -76.6563,-297.25863 -45.1253,-92.62489 -113.8457,-149.13488 -210.281,-172.9177 -40.1285,-9.89647 -68.6318,-12.84736 -123.7943,-12.81617 -107.434,0.0607 -222.3904,21.85184 -376.9386,71.45239 l -38.6588,12.40715 -43.7964,-13.91049 c -114.4353,-36.34655 -218.3824,-59.46039 -302.842,-67.34041 -45.1777,-4.21505 -135.1292,-2.0781 -167.6841,3.98361 -108.1104,20.13013 -183.97669,76.23003 -232.45493,171.8905 -34.49477,68.06736 -51.97899,133.03812 -77.5018,287.99405 -16.90454,102.632 -25.45416,147.5257 -36.24931,190.3434 -8.19187,32.4921 -21.67736,74.048 -22.06053,67.9802 z"
         id="path12332"
         transform="scale(0.26458333)" />
      <path
         style="fill:#000000;fill-opacity:1;stroke:none;stroke-width:158.462;stroke-linejoin:bevel;stroke-dasharray:none;stroke-opacity:1"
         d="m 1655.46,358.4599 c -165.8744,2.4003 -334.7716,14.0971 -492.6671,68.63853 -124.1635,41.71102 -235.81587,130.02955 -289.92561,251.11152 -60.79127,136.18342 -66.90125,287.95364 -77.9742,434.39585 -2.85774,56.7499 -9.8618,113.5691 -9.60814,170.3369 5.1086,11.7829 14.44487,-2.4673 14.16655,-9.7719 45.05045,-148.554 50.0873,-306.53056 97.71365,-454.20824 28.4634,-88.16392 84.84739,-172.46798 171.57615,-211.17154 49.3959,-23.803 104.443,-32.89186 158.9083,-31.54872 64.0443,-3.25906 128.2759,0.91831 190.9031,14.38347 85.9326,15.79973 169.3233,41.9716 252.848,66.27047 133.482,-42.49337 270.1863,-83.75884 411.5066,-81.673 86.4308,-3.48669 177.6121,13.70833 246.1321,69.70651 80.827,65.30832 116.3656,169.28604 137.0592,267.88916 24.8718,112.86799 36.7846,228.50729 67.3112,340.10339 5.0009,8.4438 5.4883,37.9968 18.6585,26.9087 -0.5991,-83.8882 -9.2726,-167.605 -14.4244,-251.327 C 2526.7868,892.64015 2510.3494,751.25921 2440.5737,631.27817 2386.6197,537.7144 2294.593,471.81443 2194.4928,434.88279 2023.0019,370.80994 1836.9556,358.27027 1655.46,358.4599 Z"
         id="path12334"
         transform="scale(0.26458333)" />
      <path
         style="fill:#000000;fill-opacity:1;stroke:none;stroke-width:158.46;stroke-linejoin:bevel;stroke-dasharray:none;stroke-opacity:1"
         d="m 1678.8307,334.55966 c -18.7064,2.90223 -38.0972,-1.30958 -57.4014,1.1685 -162.7784,6.70842 -329.2226,17.72449 -482.9238,76.15381 -108.8434,41.08934 -209.61539,113.31315 -266.20553,216.97733 -71.55765,128.29032 -84.89385,278.2245 -95.75587,421.9453 -7.05831,104.5309 -13.87882,209.1122 -20.92972,313.5343 6.89626,10.6184 26.61488,14.6601 31.31924,-0.4258 50.98821,-98.6239 63.17059,-210.915 83.21121,-318.5746 20.32806,-109.86362 34.06635,-226.59272 97.24706,-321.64387 43.52171,-67.39368 117.94231,-109.32247 195.96231,-121.81589 64.4164,-10.20375 130.4522,-6.26607 194.9796,1.10276 101.0792,13.17504 198.328,43.3785 295.8815,72.01734 11.3319,-0.0857 21.3323,5.56657 32.4602,0.80795 111.2064,-36.9948 225.393,-67.13101 342.6938,-78.44278 77.1297,-3.64712 157.1299,-3.61088 228.9357,29.61598 72.0274,31.50437 123.091,97.81594 151.006,169.98759 48.6991,124.89877 56.4292,260.31072 84.4029,390.37592 13.004,62.3173 28.784,125.6436 60.7782,181.1553 9.4058,10.177 32.9203,1.2956 27.6062,-13.9617 C 2570.37,1203.3948 2565.5317,1051.6939 2547.4225,901.08483 2531.0928,770.42567 2492.7421,635.05121 2398.5133,538.361 2297.5546,433.58125 2153.1892,386.55293 2013.1825,362.62271 1902.8085,342.78123 1790.693,337.82043 1678.8307,334.55966 Z m 156.3123,25.11763 c 9.0684,12.90904 -9.7357,13.97224 0,0 z m 36.3362,2.79509 c 9.0684,12.90904 -9.7357,13.97225 0,0 z m -399.0815,4.53111 c -1.6548,13.88326 -5.7876,-8.72222 -0.5669,-1.19704 z m 428.7467,-1.99259 c 11.6202,12.21484 -11.9577,13.59634 -0.5842,-0.0491 l 0.2403,-0.0983 z m -460.1096,0.25658 c 9.0683,12.90904 -9.7358,13.97224 0,0 z m -26.2368,2.53851 c 11.6202,12.21485 -11.9577,13.59634 -0.5841,-0.0491 l 0.2402,-0.0983 z m 511.5022,0 c 11.6202,12.21485 -11.9577,13.59634 -0.5841,-0.0491 l 0.2402,-0.0983 z m 22.3608,2.7951 c 11.6202,12.21484 -11.9577,13.59633 -0.5842,-0.0491 l 0.2403,-0.0983 z m -557.9379,0.25658 c 9.0683,12.90904 -9.7358,13.97224 0,0 z m -17.8515,2.53851 c 11.6202,12.21485 -11.9577,13.59634 -0.5841,-0.0491 l 0.2402,-0.0983 z m 595.355,0 c 11.6202,12.21485 -11.9576,13.59634 -0.5841,-0.0491 l 0.2402,-0.0983 z m -614.9206,2.79509 c 11.6201,12.21485 -11.9577,13.59634 -0.5842,-0.0491 l 0.2402,-0.0983 z m 632.7721,0.25659 c 9.0683,12.90903 -9.7358,13.97224 0,0 z m -649.5427,2.53851 c 11.6202,12.21485 -11.9577,13.59634 -0.5842,-0.0491 l 0.2402,-0.0983 z m 668.0275,0 c 11.6202,12.21485 -11.9577,13.59634 -0.5842,-0.0491 l 0.2402,-0.0983 z m -684.7981,2.79509 c 11.6202,12.21485 -11.9577,13.59634 -0.5841,-0.0491 l 0.2402,-0.0983 z m 698.7735,0 c 11.6202,12.21485 -11.9577,13.59634 -0.5841,-0.0491 l 0.2402,-0.0983 z m -712.7489,2.7951 c 11.6201,12.21484 -11.9577,13.59634 -0.5842,-0.0491 l 0.2402,-0.0983 z m 727.8053,0.25658 c 9.0683,12.90904 -9.7358,13.97224 0,0 z m -741.7808,2.53851 c 11.6202,12.21485 -11.9577,13.59634 -0.5842,-0.0491 l 0.2402,-0.0983 z m 754.6754,0 c 11.6202,12.21485 -11.9577,13.59634 -0.5842,-0.0491 l 0.2402,-0.0983 z m -768.6509,2.7951 c 11.6202,12.21484 -11.9577,13.59633 -0.5841,-0.0491 l 0.2402,-0.0983 z m 780.9121,0.25658 c 9.0684,12.90904 -9.7357,13.97224 0,0 z m -792.0925,2.53851 c 11.6202,12.21485 -11.9577,13.59634 -0.5841,-0.0491 l 0.2402,-0.0983 z m -11.1803,2.79509 c 11.6201,12.21485 -11.9577,13.59634 -0.5842,-0.0491 l 0.2402,-0.0983 z m -11.1804,2.7951 c 11.6202,12.21484 -11.9577,13.59634 -0.5842,-0.0491 l 0.2402,-0.0983 z m -11.1804,2.79509 c 11.6202,12.21485 -11.9577,13.59634 -0.5841,-0.0491 l 0.2402,-0.0983 z m -11.1804,2.7951 c 11.6202,12.21484 -11.9577,13.59633 -0.5841,-0.0491 l 0.2402,-0.0983 z m -66.6619,23.40345 c 8.2384,11.13871 -4.89,3.78625 0,0 z m -22.3607,8.38528 c 8.2384,11.13871 -4.89,3.78625 0,0 z m -120.8496,204.00911 c 6.3129,6.39864 -4.2281,-2.19477 0,0 z m 1322.2378,11.30593 c 2.6076,-4.75423 5.8421,-4.51847 0,0 z M 833.14548,809.50729 c 9.36881,9.23558 -19.02141,5.25304 -4.55841,-0.69332 l 2.5549,-0.0273 z m 1679.85152,8.38528 c 9.3688,9.23558 -19.0214,5.25305 -4.5584,-0.69332 l 2.5549,-0.0273 z M 830.31763,822.6475 c 8.06003,10.28628 -22.90651,-0.34256 0,0 z m 1685.44177,11.18038 c 8.06,10.28628 -22.9066,-0.34257 0,0 z m -1688.20411,3.63035 c 9.36881,9.23558 -19.02141,5.25304 -4.5584,-0.69332 l 2.55489,-0.0273 z m 1690.99921,10.34512 c 8.06,10.28628 -22.9066,-0.34257 0,0 z m -1693.82706,5.59019 c 8.06003,10.28628 -22.90651,-0.34257 0,0 z m 1696.62206,11.18037 c 8.0601,10.28629 -22.9065,-0.34256 0,0 z M 821.93235,870.1641 c 8.06003,10.28628 -22.90652,-0.34256 0,0 z m 1702.21225,11.18038 c 8.0601,10.28628 -22.9065,-0.34257 0,0 z m -1705.00734,8.38528 c 8.06002,10.28628 -22.90652,-0.34257 0,0 z m 1707.80244,11.18038 c 8.06,10.28628 -22.9065,-0.34257 0,0 z m -1710.59754,8.38528 c 8.06003,10.28628 -22.90652,-0.34257 0,0 z m 1713.27804,13.77347 c 2.3453,6.50239 -14.4327,-0.98153 -1.885,-0.17855 z m -1716.18778,8.38528 c 2.34534,6.5024 -14.4327,-0.98153 -1.88495,-0.17855 z m 1718.98288,16.77056 c 2.3453,6.5024 -14.4327,-0.98152 -1.885,-0.17855 z m 2.3201,27.2631 c -4.1569,3.13501 -8.946,-3.11281 0,0 z M 807.36729,989.4633 c -4.1569,3.13501 -8.94607,-3.11281 0,0 z m 1730.16321,19.5657 c -4.1569,3.135 -8.946,-3.1129 0,0 z m -41.304,40.8564 c 9.3687,9.2356 -19.0215,5.253 -4.5585,-0.6933 l 2.5549,-0.027 z m 2.7951,16.7705 c 9.3687,9.2356 -19.0215,5.2531 -4.5585,-0.6933 l 2.5549,-0.027 z m 2.795,16.7706 c 9.3688,9.2356 -19.0214,5.2531 -4.5584,-0.6933 l 2.5549,-0.027 z m 41.113,1.07 c -4.0786,2.9808 -9.0516,-2.9252 0,0 z m -1701.39884,4.5202 c 9.36881,9.2356 -19.02141,5.253 -4.5584,-0.6933 l 2.55489,-0.027 z m 1663.04824,10.3451 c 8.06,10.2863 -22.9065,-0.3426 0,0 z m -1705.78806,1.9053 c -4.0786,2.9807 -9.05168,-2.9252 0,0 z m 39.94473,4.5202 c 9.36881,9.2355 -19.02141,5.253 -4.55841,-0.6934 l 2.5549,-0.027 z m 1668.63843,10.3451 c 8.06,10.2863 -22.9065,-0.3426 0,0 z m -1671.43352,6.4254 c 9.3688,9.2356 -19.02142,5.2531 -4.55841,-0.6933 l 2.55489,-0.027 z m 1710.56482,1.9599 c 8.06,10.2862 -22.9065,-0.3426 0,0 z m -36.3362,8.3852 c 8.06,10.2863 -22.9066,-0.3425 0,0 z m -1677.05647,5.5902 c 8.06002,10.2863 -22.90652,-0.3425 0,0 z m -36.45087,5.3882 c 2.34534,6.5024 -14.4327,-0.9815 -1.88495,-0.1785 z m 1716.30244,2.9971 c 8.06,10.2863 -22.9066,-0.3426 0,0 z m -1682.64667,5.5902 c 8.06003,10.2863 -22.90651,-0.3426 0,0 z m 1685.44177,8.3853 c 8.06,10.2863 -22.9066,-0.3426 0,0 z m -1688.20411,6.4254 c 9.36881,9.2356 -19.02141,5.2531 -4.5584,-0.6933 l 2.55489,-0.027 z m 1721.77791,0 c 9.3688,9.2356 -19.0214,5.2531 -4.5584,-0.6933 l 2.5549,-0.027 z m -1724.60576,13.1402 c 8.06003,10.2863 -22.90651,-0.3425 0,0 z m -2.76233,12.0157 c 9.3688,9.2356 -19.02142,5.253 -4.55841,-0.6933 l 2.55489,-0.027 z m -2.82785,13.1402 c 8.06002,10.2863 -22.90652,-0.3426 0,0 z m 1732.84364,10.9784 c 2.3454,6.5024 -14.4327,-0.9816 -1.8849,-0.1786 z m -1735.60598,1.0372 c 9.3688,9.2356 -19.02142,5.2531 -4.55841,-0.6933 l 2.55489,-0.027 z m -2.7951,11.1804 c 9.36881,9.2356 -19.02141,5.253 -4.5584,-0.6933 l 2.55489,-0.027 z"
         id="path12336"
         transform="scale(0.26458333)" />
      <path
         style="fill:none;fill-opacity:1;stroke:#000000;stroke-width:4.99999;stroke-linecap:round;stroke-linejoin:bevel;stroke-dasharray:none;stroke-opacity:1"
         d="m 395.64098,577.9867 c 29.59511,-59.8432 16.52197,-124.42732 23.50598,-186.78286"
         id="path14591"
         sodipodi:nodetypes="cc" />
      <path
         style="fill:none;fill-opacity:1;stroke:#000000;stroke-width:4.99999;stroke-linecap:round;stroke-linejoin:bevel;stroke-dasharray:none;stroke-opacity:1"
         d="m 203.65981,361.55336 c -6.69853,164.58938 51.32952,147.49487 51.32952,218.93333 0,110.51983 106.38206,218.77562 186.65496,254.06004 M 679.62877,361.55336 c 6.69853,164.58938 -51.32952,147.49487 -51.32952,218.93333 0,110.51983 -106.38206,218.77562 -186.65496,254.06004"
         id="path25487"
         sodipodi:nodetypes="csc"
         inkscape:path-effect="#path-effect31297"
         inkscape:original-d="m 203.65981,361.55336 c -6.69853,164.58938 51.32952,147.49487 51.32952,218.93333 0,110.51983 106.38206,218.77562 186.65496,254.06004"
         class="UnoptimicedTransforms" />
      <path
         style="fill:none;fill-opacity:1;stroke:#000000;stroke-width:4.99999;stroke-linecap:round;stroke-linejoin:bevel;stroke-dasharray:none;stroke-opacity:1"
         d="m 357.03703,673.75489 c 31.60596,-22.41407 56.81493,-20.2126 84.60726,-20.1596 m 84.60726,20.1596 c -31.60596,-22.41407 -56.81493,-20.2126 -84.60726,-20.1596"
         id="path31299"
         sodipodi:nodetypes="cc"
         inkscape:path-effect="#path-effect31301"
         inkscape:original-d="m 357.03703,673.75489 c 31.60596,-22.41407 56.81493,-20.2126 84.60726,-20.1596"
         class="UnoptimicedTransforms" />
      <path
         style="fill:none;fill-opacity:1;stroke:#000000;stroke-width:4.99999;stroke-linecap:round;stroke-linejoin:bevel;stroke-dasharray:none;stroke-opacity:1"
         d="m 357.03703,673.75489 c 28.512,-9.92099 57.01119,-10.41757 84.60726,-10.11767 m 84.60726,10.11767 c -28.512,-9.92099 -57.01119,-10.41757 -84.60726,-10.11767"
         id="path31303"
         sodipodi:nodetypes="cc"
         inkscape:path-effect="#path-effect31305"
         inkscape:original-d="m 357.03703,673.75489 c 28.512,-9.92099 57.01119,-10.41757 84.60726,-10.11767"
         class="UnoptimicedTransforms" />
      <path
         style="fill:none;fill-opacity:1;stroke:#000000;stroke-width:21.5344;stroke-linecap:round;stroke-linejoin:bevel;stroke-dasharray:none;stroke-opacity:1"
         d="m 1651.1621,2472.7237 c -60.1607,0.4834 -121.5898,-0.7482 -179.7736,16.9613 -17.0318,5.2976 -34.6974,10.2521 -49.9754,19.6016 -5.7774,5.9225 2.07,14.751 9.0673,11.7959 49.9702,-9.3317 100.2304,-14.0311 150.9678,-15.17 74.8193,-1.5006 149.9996,-2.1163 224.6411,2.2857 35.5478,2.0138 69.8576,7.567 104.957,13.2537 7.9666,2.407 13.0314,-9.7495 5.4751,-13.4718 -43.5437,-20.1073 -91.1546,-30.9694 -139.0365,-33.1089 -42.059,-2.3733 -84.213,-2.1393 -126.3228,-2.1475 z"
         id="path31313"
         transform="scale(0.26458333)" />
      <path
         style="fill:none;fill-opacity:1;stroke:#000000;stroke-width:21.5344;stroke-linecap:round;stroke-linejoin:bevel;stroke-dasharray:none;stroke-opacity:1"
         d="m 1630.1342,2477.3797 c -55.2202,0.3689 -111.7839,0.9966 -164.5954,19.0337 -8.1465,2.6241 -4.6342,15.7314 3.7213,13.8524 68.2142,-9.4379 137.2125,-8.7925 205.8856,-9.8228 54.9968,0.5031 110.2381,1.0022 164.4888,6.377 10.5234,0.5372 21.0491,3.4348 31.5483,2.8672 7.7542,-2.3594 5.5286,-13.7422 -1.9764,-14.5847 -41.325,-13.5181 -85.048,-16.61 -128.2583,-16.9254 -36.9334,-0.615 -73.8754,-0.8906 -110.8139,-0.7974 z"
         id="path31317"
         transform="scale(0.26458333)" />
      <path
         style="fill:none;fill-opacity:1;stroke:#000000;stroke-width:39.7816;stroke-linecap:round;stroke-linejoin:bevel;stroke-dasharray:none;stroke-opacity:1"
         d="m 1634.0869,2454.2119 c -73.5179,-0.2825 -149.2826,4.4701 -216.9578,35.9184 -27.3567,13.2651 -55.3468,27.1385 -78.2797,47.3156 -11.9754,10.8789 3.9695,31.1753 17.5316,22.6464 73.524,-23.9806 150.0122,-34.5215 227.022,-35.2482 114.772,-1.788 231.0629,-6.543 343.6764,19.7107 22.2433,3.5536 42.9824,15.5038 65.7353,15.8993 13.8883,-1.8721 13.7215,-21.5915 2.5574,-27.35 -34.8488,-25.6575 -74.8308,-44.066 -115.2999,-59.0129 -70.4295,-22.5141 -145.5935,-17.9058 -218.5243,-19.8754 -9.1536,-0.049 -18.3074,-0.048 -27.461,0 z"
         id="path31323"
         transform="scale(0.26458333)" />
      <path
         style="fill:none;fill-opacity:1;stroke:#000000;stroke-width:4.99999;stroke-linecap:round;stroke-linejoin:bevel;stroke-dasharray:none;stroke-opacity:1"
         d="M 485.61479,577.9867 C 456.01968,518.1435 469.09282,453.55938 462.10881,391.20384"
         id="path31325"
         sodipodi:nodetypes="cc" />
      <circle
         style="fill:#000000;fill-opacity:1;stroke:#000000;stroke-width:7.62512;stroke-linecap:round;stroke-linejoin:bevel;stroke-dasharray:none;stroke-opacity:1"
         id="path31327"
         cx="333.48865"
         cy="375.63177"
         r="19.737917" />
      <circle
         style="fill:#000000;fill-opacity:1;stroke:#000000;stroke-width:7.62512;stroke-linecap:round;stroke-linejoin:bevel;stroke-dasharray:none;stroke-opacity:1"
         id="circle34233"
         cx="551.33417"
         cy="375.63177"
         r="19.737917" />
      <path
         style="fill:#ffeec1;fill-opacity:1;stroke:#000000;stroke-width:18.8976;stroke-linecap:round;stroke-linejoin:bevel;stroke-dasharray:none;stroke-opacity:1"
         d="m 1223.1699,591.98917 c -98.6431,-0.74089 -200.4335,42.23728 -256.51232,125.77243 -73.38697,106.61827 -83.0598,239.99397 -107.99657,363.1779 -18.78217,96.4967 -31.7302,197.2849 -78.93138,285.1314 -12.71483,16.0391 -4.06276,40.2195 -7.03507,59.2795 1.04508,118.5471 1.87755,239.0432 36.21799,353.6328 22.14622,89.5082 74.29268,166.4706 119.00263,245.6953 41.90443,72.2009 37.97867,157.1436 44.62167,237.3324 19.63355,193.0919 116.44765,370.0444 237.08475,518.6828 109.0538,131.705 49.7295,241.1146 199.019,325.1762 22.1383,12.4656 233.8149,31.4765 256.807,42.4506 22.7471,-2.813 260.1454,-33.5392 281.2507,-42.4506 192.5665,-106.1278 138.4533,-249.1099 260.3345,-431.6088 95.7028,-144.2407 164.4289,-313.1477 163.0798,-488.2145 2.6695,-68.7977 21.2437,-137.1157 59.7196,-195.5261 50.8947,-82.6219 96.9766,-170.3132 113.7743,-266.9343 22.2592,-113.2848 24.6461,-229.7103 20.1364,-344.7002 -6.3508,-21.5721 -21.6436,-39.8124 -27.7252,-61.6035 -40.3646,-103.1204 -50.0537,-215.3178 -71.3918,-323.37106 -21.3172,-110.58949 -42.3824,-231.39859 -125.1693,-314.57918 -60.9266,-62.75408 -150.5499,-90.54485 -236.692,-85.9337 -67.0919,-2.15646 -134.3657,2.14755 -199.7071,18.29726 -75.3404,14.95374 -148.4964,38.65917 -222.4696,58.74919 -32.1559,2.22825 -62.808,-14.02991 -93.8941,-20.30266 -108.3274,-32.20477 -219.6338,-59.13812 -333.3953,-57.96162 -10.0417,-0.179 -20.0854,-0.29324 -30.1286,-0.19156 z m -36.2388,359.11862 c 57.6517,3.01339 103.513,49.06351 145.1865,84.69161 56.9427,49.2975 106.152,109.0049 171.6041,147.5468 13.9815,9.0711 31.9809,13.9508 46.5424,18.626 0.1575,7.1475 2.9207,19.8825 -8.5477,12.6632 -72.3231,-17.6107 -122.5836,-77.9432 -176.3287,-126.3104 -51.4764,-45.6246 -99.1003,-105.35545 -169.4663,-120.92096 -54.8839,-10.77184 -100.0299,33.22806 -128.5206,74.59166 -36.2016,49.8995 -58.913,107.8302 -83.14565,163.8475 -11.16786,-0.077 -17.92806,-5.4626 -9.50559,-15.7348 32.80104,-76.6239 64.82224,-159.8174 131.69114,-213.37713 22.9699,-17.4069 51.5478,-27.08902 80.4904,-25.62348 z m 981.8573,0.0198 c 64.8723,2.76866 109.2811,59.62491 139.8954,110.77091 25.996,44.7529 46.6237,92.5055 65.8984,140.4173 -8.9218,4.2212 -18.4796,4.9806 -19.6189,-7.4182 -31.4667,-76.4394 -66.6127,-157.0735 -132.4839,-210.27256 -36.1769,-28.9964 -87.8244,-21.34602 -124.3389,2.80083 -71.9833,45.09943 -125.5519,113.13723 -190.6668,166.85993 -32.2739,28.7157 -69.2764,55.2805 -113.0036,61.9151 0.6537,-8.1291 -5.6116,-19.5782 8.0259,-17.3862 58.6081,-15.1186 100.4354,-63.4274 144.2023,-102.0896 54.4584,-48.9693 104.446,-109.96828 173.6835,-137.25455 15.4692,-5.60541 31.9061,-8.88941 48.4066,-8.34296 z m -31.5092,276.81821 c 90.6958,-3.662 175.159,77.6653 174.2384,168.3528 -1.9476,79.0018 -71.2509,138.6869 -143.3369,157.8497 -45.9256,9.3622 -93.5601,8.0926 -140.2786,4.4786 -58.7387,-11.6935 -124.4356,-31.3945 -161.7735,-81.5869 -24.8267,-34.9981 -0.708,-78.8417 21.4091,-108.7628 51.9695,-66.4746 127.4425,-116.3481 209.2024,-136.2226 13.3942,-2.7492 26.9889,-4.1229 40.5391,-4.1088 z m -937.4868,0.2775 c 104.8402,-1.2286 197.2466,67.1984 259.7399,145.299 23.5303,28.5996 42.5454,73.3218 16.7282,106.411 -39.9584,47.6266 -103.1936,69.6785 -163.1871,77.9802 -69.6744,7.8424 -144.0959,8.0913 -204.1754,-33.9995 -48.2975,-33.7808 -87.7264,-91.5218 -74.5783,-153.12 14.4202,-75.8449 85.5166,-143.8729 165.4727,-142.5707 z m 548.2132,247.0001 c 9.6525,38.6935 6.6951,81.3478 9.5717,121.8156 7.1632,153.7241 -4.0835,310.796 36.3841,460.9058 9.842,44.9059 31.856,85.9736 43.5316,130.1256 -26.7857,7.095 -61.4585,-4.8478 -80.7415,20.9136 -8.0564,12.6712 -27.2505,24.5672 -24.4365,39.5073 42.1166,13.935 88.8374,20.2779 132.9408,30.3219 86.7596,18.0725 176.9576,26.5632 264.9619,13.2771 63.3933,-12.1845 106.9962,-71.6553 116.5707,-133.0652 20.247,-113.8779 2.6999,-230.1212 -11.2825,-343.6877 -5.5474,-51.9465 -19.2481,-103.3499 -20.9995,-155.2536 10.4688,-36.5331 21.8329,-75.1907 37.5864,-108.4391 13.6804,4.0764 31.3299,7.9551 41.3781,16.6001 -9.2464,34.1556 -26.9831,66.6988 -33.1356,101.0553 21.0558,135.1794 43.1468,270.9786 40.4848,408.0522 0.249,73.3084 -12.3072,154.9327 -66.8533,209.7507 -47.5688,45.5297 -116.2667,61.5693 -180.3618,57.6356 -131.2024,2.4778 -259.0759,-33.8892 -386.1757,-62.438 -144.6857,34.8519 -291.8565,73.4445 -440.5159,60.7646 -67.1888,-9.4457 -135.4267,-46.3772 -161.5598,-112.2579 -36.8749,-83.2707 -27.7208,-175.5812 -25.1677,-264.1908 5.5387,-101.9993 25.2405,-203.3345 37.8437,-304.6369 -11.1323,-31.7517 -23.6349,-63.2821 -33.4116,-95.2541 13.4109,-5.8438 29.1337,-13.3336 42.6596,-13.9512 15.7179,45.7946 43.933,91.7669 33.7401,142.1839 -20.0917,148.1583 -51.3667,298.291 -32.2208,448.2595 7.1369,56.5385 35.1425,116.0219 90.9406,138.5479 51.9429,22.2756 110.6828,18.2056 165.8822,15.8669 86.8346,-7.2704 171.7089,-28.1728 256.6841,-46.4447 13.7157,-12.3785 -11.664,-26.6824 -17.9345,-38.8085 -14.3448,-22.8506 -43.5434,-21.6446 -65.9182,-21.7327 -9.6804,-2.0497 -33.856,1.1283 -23.3247,-14.8694 51.3851,-111.0657 69.2712,-234.05 72.2937,-355.4605 6.7347,-114.2666 -1.055,-229.2326 13.904,-342.6029 4.6481,-8.751 4.992,10.3483 4.2805,12.4913 -4.6836,108.8856 -8.2594,218.8364 -9.305,327.9602 -4.1877,118.0138 -18.9493,237.3218 -66.3434,347.0494 -8.3532,14.3504 9.8393,18.67 20.7345,17.4233 20.3217,3.6709 46.4734,-4.4922 56.718,18.7696 15.3917,17.3058 32.107,46.6412 59.8799,38.2929 10.9164,-5.4366 11.5991,0.4444 16.0584,8.6336 7.7365,7.4977 16.8383,-2.6845 17.34,-9.8755 17.8168,3.9459 39.7086,3.2609 50.7515,-14.3211 14.0544,-11.8125 21.619,-34.7277 40.6052,-39.0198 17.1089,-0.8155 35.8275,0.3477 51.2008,-7.4975 -3.345,-23.7221 -18.2189,-46.365 -24.0568,-70.1026 -50.8572,-148.3125 -42.7028,-307.4373 -49.6168,-462.305 -0.2655,-56.3473 -5.6527,-115.1961 -2.2127,-170.0156 z m -104.9645,965.898 c 93.4069,2.4953 192.7802,-8.6994 279.2334,34.9432 32.1692,17.2211 70.8828,28.5842 92.5748,59.4786 9.6694,19.7176 -9.7708,45.4628 -31.8197,37.5269 -47.3273,-9.1356 -93.6311,-24.3501 -142.1017,-27.6911 -118.4938,-11.1968 -238.1643,-8.4557 -356.6282,1.6316 -46.7169,3.1747 -90.5484,20.3881 -135.8726,29.2501 -24.213,-0.1443 -38.9879,-37.0973 -16.6224,-51.3015 67.1385,-53.4961 152.6494,-81.8499 237.9835,-82.7155 24.4768,-0.9082 48.6898,-1.0319 73.2529,-1.1223 z"
         id="path35030"
         transform="scale(0.26458333)"
         sodipodi:nodetypes="cccccccccscccccccccccccccccccccccccccccccccccccccccccccccccccccccccccccccccccccccccccccccccccccccccccccccccccccccccccccccccc" />
    </g>
    <path
       style="fill:none;fill-opacity:1;stroke:#000000;stroke-width:15;stroke-linecap:round;stroke-linejoin:bevel;stroke-dasharray:none;stroke-opacity:1"
       d="m 258.11887,319.97848 c 55.24865,-147.52335 102.39348,-4.5882 153.57068,0"
       id="path48488"
       sodipodi:nodetypes="cc"
       class="UnoptimicedTransforms"
       transform="matrix(0.2628691,0,0,0.26286978,16.983501,3.5410029)" />
    <path
       style="fill:#ffffff;fill-opacity:1;stroke:none;stroke-width:15.2241;stroke-linecap:round;stroke-linejoin:bevel;stroke-dasharray:none;stroke-opacity:1"
       d="m 99.878217,89.743441 c -4.922471,0.135437 -9.16824,4.474679 -10.13775,9.135484 -0.935903,5.007225 2.676759,9.691335 7.278788,11.290325 5.105525,2.35429 11.158015,1.55667 16.289945,-0.30053 2.64323,-1.26581 6.28095,-2.8108 6.63603,-6.08927 -0.98078,-4.650851 -5.20358,-7.799075 -8.7988,-10.507814 -3.28897,-2.32897 -7.18978,-3.806934 -11.268213,-3.528195 z m 4.703833,6.721801 c 4.60884,-0.251134 7.61949,5.699938 4.80217,9.330588 -2.81634,4.21271 -10.407973,1.99747 -10.546052,-3.05643 -0.339428,-3.26361 2.478002,-6.298056 5.743882,-6.274158 z"
       id="path47758" />
    <path
       style="fill:#ffffff;fill-opacity:1;stroke:none;stroke-width:15.2241;stroke-linecap:round;stroke-linejoin:bevel;stroke-dasharray:none;stroke-opacity:1"
       d="m 165.59656,89.57823 c -7.21221,0.655232 -13.98098,5.179599 -17.78079,11.2864 -1.60671,2.06249 -1.23948,5.1562 1.03219,6.56917 5.76722,3.92832 13.50723,5.54199 20.15797,2.96501 5.3428,-1.72061 9.98104,-8.12123 7.23818,-13.662145 -1.83037,-4.086168 -6.08489,-7.233411 -10.64755,-7.158435 z m -3.35066,6.901959 c 4.5895,-0.135972 6.95635,5.885831 4.38599,9.282601 -2.64416,3.93065 -9.83132,2.52643 -10.33914,-2.39716 -0.93047,-3.693018 2.24464,-7.159437 5.95315,-6.885441 z"
       id="path47760" />
    <path
       style="fill:none;fill-opacity:1;stroke:#000000;stroke-width:15;stroke-linecap:round;stroke-linejoin:bevel;stroke-dasharray:none;stroke-opacity:1"
       d="m 258.11887,319.97848 c 55.24865,-147.52335 102.39348,-4.5882 153.57068,0"
       id="path48491"
       sodipodi:nodetypes="cc"
       class="UnoptimicedTransforms"
       transform="matrix(-0.2628691,0,0,0.26286978,248.42726,3.5368585)" />
    <g
       id="g74691"
       transform="matrix(0.95119018,0,0,0.93692909,-885.73274,-50.526795)">
      <path
         style="fill:none;fill-opacity:1;stroke:#5c5c5c;stroke-width:4.99999;stroke-linecap:round;stroke-linejoin:bevel;stroke-dasharray:none;stroke-opacity:1"
         d="m 1353.3975,81.353125 c -85.3236,-6.037139 -93.0396,58.642345 -96.3328,100.338915 -0.2266,2.86868 0.4267,6.00115 0,8.60482 6.2011,59.65093 26.5999,106.74138 79.1079,113.82509 6.0656,0.81829 11.1697,0.79216 17.2249,2.24809 m 0,-225.016915 c 85.3236,-6.037139 93.0396,58.642345 96.3328,100.338915 0.2266,2.86868 -0.4267,6.00115 0,8.60482 -6.2011,59.65093 -26.5999,106.74138 -79.1079,113.82509 -6.0656,0.81829 -11.1697,0.79216 -17.2249,2.24809"
         id="path56619"
         sodipodi:nodetypes="cscsc"
         inkscape:path-effect="#path-effect60255"
         inkscape:original-d="m 1353.3975,81.353125 c -85.3236,-6.037139 -93.0396,58.642345 -96.3328,100.338915 -0.2266,2.86868 0.4267,6.00115 0,8.60482 6.2011,59.65093 26.5999,106.74138 79.1079,113.82509 6.0656,0.81829 11.1697,0.79216 17.2249,2.24809"
         class="UnoptimicedTransforms" />
      <path
         style="fill:none;fill-opacity:1;stroke:#5b5b5b;stroke-width:4.99999;stroke-linecap:round;stroke-linejoin:bevel;stroke-dasharray:none;stroke-opacity:1"
         d="m 1257.0647,190.29686 h 192.6656"
         id="path60257" />
      <path
         style="fill:#646464;fill-opacity:1;stroke:#5c5c5c;stroke-width:5.079;stroke-linecap:butt;stroke-linejoin:bevel;stroke-dasharray:none;stroke-opacity:1"
         d="M 1353.3975,190.29686 V 306.37004"
         id="path60259" />
      <path
         style="fill:#646464;fill-opacity:1;stroke:#5d5d5d;stroke-width:5.079;stroke-linecap:butt;stroke-linejoin:bevel;stroke-dasharray:none;stroke-opacity:1"
         d="M 1348.3189,190.29686 V 306.37004"
         id="path60991" />
      <path
         style="fill:#646464;fill-opacity:1;stroke:#5d5d5d;stroke-width:5.079;stroke-linecap:butt;stroke-linejoin:bevel;stroke-dasharray:none;stroke-opacity:1"
         d="M 1358.4761,190.29686 V 306.37004"
         id="path60993" />
      <path
         sodipodi:type="star"
         style="fill:none;fill-opacity:1;stroke:#fefefe;stroke-width:5.07901;stroke-linecap:round;stroke-linejoin:bevel;stroke-dasharray:none;stroke-opacity:0.997955"
         id="path64677"
         inkscape:flatsided="false"
         sodipodi:sides="3"
         sodipodi:cx="1337.1027"
         sodipodi:cy="108.94556"
         sodipodi:r1="60.107124"
         sodipodi:r2="30.053562"
         sodipodi:arg1="0.52359878"
         sodipodi:arg2="1.5707963"
         inkscape:rounded="0"
         inkscape:randomized="0"
         d="m 1389.157,138.99912 -52.0543,0 -52.0543,0 26.0271,-45.080344 26.0272,-45.080344 26.0271,45.080343 z"
         inkscape:transform-center-x="-2.245583e-05"
         inkscape:transform-center-y="-10.741986"
         transform="matrix(0.71485604,0,0,0.71485604,397.56159,62.548146)" />
      <path
         style="fill:#000000;fill-opacity:1;stroke:none;stroke-width:40.1129;stroke-linecap:round;stroke-linejoin:bevel;stroke-dasharray:none;stroke-opacity:1"
         d="m 4873.6903,722.2965 c -36.8914,0.99796 -74.1519,-1.80638 -110.8318,2.40389 -12.3214,5.23261 -3.634,20.92214 -3.8852,30.71778 14.9759,103.58882 41.3233,211.10545 110.0622,293.05333 41.6642,50.7984 102.5125,83.3707 166.8416,94.6725 17.1018,2.4347 34.8102,7.2662 51.8734,5.2037 6.9439,-10.9409 1.5023,-26.0403 3.6279,-38.428 1.1934,-126.87622 0.5644,-253.76026 0.7268,-380.64009 -4.412,-12.85906 -21.8116,-4.71624 -32.0749,-6.99944 -62.1134,0.004 -124.2267,-0.0113 -186.34,0.0163 z"
         id="path73225"
         transform="scale(0.26458333)" />
      <path
         style="fill:#000000;fill-opacity:1;stroke:none;stroke-width:40.1129;stroke-linecap:round;stroke-linejoin:bevel;stroke-dasharray:none;stroke-opacity:1"
         d="m 5140.836,724.25144 c -5.0225,17.48197 -0.6798,36.94276 -2.1305,55.1792 0,121.02691 0,242.05386 0,363.08076 4.5296,13.2238 21.7626,3.6134 32.0178,4.1792 67.6424,-7.0249 133.7096,-36.1293 180.1522,-86.5521 68.9137,-73.81976 99.0786,-174.45876 115.2424,-272.01049 2.7415,-19.23511 7.3152,-38.40864 8.1767,-57.81583 -6.1595,-11.32562 -22.5535,-5.18334 -33.0622,-7.38194 -98.5033,-1.1935 -197.019,-0.42542 -295.5274,-0.65007 -1.623,0.65709 -3.246,1.31418 -4.869,1.97127 z"
         id="path73227"
         transform="scale(0.26458333)" />
      <path
         style="fill:none;fill-opacity:1;stroke:none;stroke-width:160.172;stroke-linecap:round;stroke-linejoin:bevel;stroke-dasharray:none;stroke-opacity:0.997955"
         d="m 5596.354,367.79521 c -216.618,1.20999 -439.8802,39.89831 -626.5773,155.22618 -177.5665,108.03859 -304.2504,285.16726 -376.2882,477.86351 -82.871,220.0415 -113.0321,455.6903 -129.9366,688.9201 -1.0352,31.0224 -4.0926,63.6455 3.7199,93.5501 82.1895,3.4713 165.4611,0.4913 248.0661,1.4854 772.1293,0 1544.2587,0 2316.388,0 14.9138,-10.279 3.3592,-35.5683 7.0018,-51.9327 -4.8679,-141.5498 -22.2532,-282.6229 -46.5783,-422.0898 C 6953.5395,1099.0572 6883.4651,886.82973 6748.4199,716.13921 6684.9876,643.8111 6616.8744,573.58173 6533.2587,524.50576 6341.5347,404.23238 6110.2131,367.04798 5887.1611,367.96288 c -79.5364,2.06094 -158.6782,5.97633 -237.9939,0.37798 -17.5997,-0.48134 -35.2071,-0.6437 -52.8132,-0.54565 z m 154.389,188.54115 c 24.1946,-7.36153 27.161,22.19425 38.8929,36.50626 161.1368,275.01683 322.2718,550.03478 483.4057,825.05338 -9.3865,16.947 -16.8538,37.2593 -40.2842,29.5931 -319.3195,-0.2444 -638.9363,2.7198 -958.0728,-0.07 -14.5398,-0.8138 -33.5531,2.9349 -38.4384,-15.4879 -7.7621,-9.545 -7.1688,-20.107 1.4056,-28.9975 164.5136,-282.6123 330.3448,-564.45855 495.5962,-846.64188 5.8317,0.0148 11.6634,0.0296 17.495,0.0444 z"
         id="path79126"
         transform="matrix(0.07311974,0,0,0.0742329,932.91418,55.756751)" />
      <path
         style="fill:#000000;fill-opacity:1;stroke:none;stroke-width:160.172;stroke-linecap:round;stroke-linejoin:bevel;stroke-dasharray:none;stroke-opacity:0.997955"
         d="m 5596.354,367.79521 c -216.618,1.20999 -439.8802,39.89831 -626.5773,155.22618 -177.5665,108.03859 -304.2504,285.16726 -376.2882,477.86351 -82.871,220.0415 -113.0321,455.6903 -129.9366,688.9201 -1.0352,31.0224 -4.0926,63.6455 3.7199,93.5501 82.1895,3.4713 165.4611,0.4913 248.0661,1.4854 772.1293,0 1544.2587,0 2316.388,0 14.9138,-10.279 3.3592,-35.5683 7.0018,-51.9327 -4.8679,-141.5498 -22.2532,-282.6229 -46.5783,-422.0898 C 6953.5395,1099.0572 6883.4651,886.82973 6748.4199,716.13921 6684.9876,643.8111 6616.8744,573.58173 6533.2587,524.50576 6341.5347,404.23238 6110.2131,367.04798 5887.1611,367.96288 c -79.5364,2.06094 -158.6782,5.97633 -237.9939,0.37798 -17.5997,-0.48134 -35.2071,-0.6437 -52.8132,-0.54565 z m 154.389,188.54115 c 24.1946,-7.36153 27.161,22.19425 38.8929,36.50626 161.1368,275.01683 322.2718,550.03478 483.4057,825.05338 -9.3865,16.947 -16.8538,37.2593 -40.2842,29.5931 -319.3195,-0.2444 -638.9363,2.7198 -958.0728,-0.07 -14.5398,-0.8138 -33.5531,2.9349 -38.4384,-15.4879 -7.7621,-9.545 -7.1688,-20.107 1.4056,-28.9975 164.5136,-282.6123 330.3448,-564.45855 495.5962,-846.64188 5.8317,0.0148 11.6634,0.0296 17.495,0.0444 z"
         id="path79128"
         transform="matrix(0.07311974,0,0,0.0742329,932.91418,55.756751)" />
      <path
         style="fill:#000000;fill-opacity:1;stroke:none;stroke-width:437.466;stroke-linecap:round;stroke-linejoin:bevel;stroke-dasharray:none;stroke-opacity:0.997955"
         d="m 5749.1547,608.05133 c -162.3365,259.3292 -312.2216,527.46367 -468.396,790.96427 31.966,25.5916 102.2022,2.8223 148.0815,10.5414 260.9912,-1.6807 522.4533,3.8989 783.1624,-5.2707 1.5685,-39.7269 -42.087,-75.4267 -55.8311,-113.6405 -132.113,-227.055 -263.5889,-454.48441 -398.0705,-680.13252 l -8.5232,-2.48099 -0.2324,-0.0676 z"
         id="path79130"
         transform="matrix(0.07311974,0,0,0.0742329,932.91418,55.756751)" />
    </g>
    <rect
       style="fill:#e30000;fill-opacity:1;stroke:#010000;stroke-width:2.42646;stroke-linecap:round;stroke-linejoin:miter;stroke-dasharray:none;stroke-opacity:1"
       id="rect87592"
       width="262.97488"
       height="263.375"
       x="1.6460721"
       y="264.5831" />
    <text
       xml:space="preserve"
       transform="matrix(4.6412573,0,0,4.2974127,-2610.6049,9429.8662)"
       id="text88574"
       style="font-size:37.3333px;font-family:Arial;-inkscape-font-specification:Arial;white-space:pre;shape-inside:url(#rect88576);fill:#000000;fill-opacity:1;stroke:none;stroke-width:49.2813;stroke-linecap:round;stroke-linejoin:bevel;stroke-dasharray:none;stroke-opacity:1"><tspan
         x="573.17969"
         y="-2088.6844"
         id="tspan92347">11</tspan></text>
    <path
       style="fill:none;fill-opacity:1;stroke:#000000;stroke-width:2.63;stroke-linecap:round;stroke-linejoin:bevel;stroke-dasharray:none;stroke-opacity:1"
       d="M 264.51517,264.58311 V 527.45287"
       id="path88674" />
    <rect
       style="fill:#e80000;fill-opacity:1;stroke:#000000;stroke-width:2.61667;stroke-linecap:round;stroke-linejoin:miter;stroke-dasharray:none;stroke-opacity:1"
       id="rect88676"
       width="262.76776"
       height="263.68069"
       x="265.09058"
       y="264.17764" />
    <g
       id="g92128"
       transform="matrix(1.5254326,0,0,1.5254326,-177.01935,-164.41258)">
      <g
         id="g91916">
        <g
           id="g91744">
          <g
             id="g91722">
            <rect
               style="fill:#ffffff;fill-opacity:1;stroke:#000000;stroke-width:0.5;stroke-linecap:round;stroke-linejoin:miter;stroke-dasharray:none;stroke-opacity:1"
               id="rect89518"
               width="15.58987"
               height="13.632812"
               x="313.59537"
               y="312.85999" />
            <rect
               style="fill:#000000;fill-opacity:1;stroke:#000000;stroke-width:0.5;stroke-linecap:round;stroke-linejoin:miter;stroke-dasharray:none;stroke-opacity:1"
               id="rect89520"
               width="15.58987"
               height="13.632812"
               x="329.18524"
               y="312.85999" />
            <rect
               style="fill:#ffffff;fill-opacity:1;stroke:#000000;stroke-width:0.5;stroke-linecap:round;stroke-linejoin:miter;stroke-dasharray:none;stroke-opacity:1"
               id="rect91708"
               width="15.58987"
               height="13.632812"
               x="344.77512"
               y="312.85999" />
            <rect
               style="fill:#000000;fill-opacity:1;stroke:#000000;stroke-width:0.5;stroke-linecap:round;stroke-linejoin:miter;stroke-dasharray:none;stroke-opacity:1"
               id="rect91710"
               width="15.58987"
               height="13.632812"
               x="360.36499"
               y="312.85999" />
          </g>
          <g
             id="g91732"
             transform="translate(62.359497)">
            <rect
               style="fill:#ffffff;fill-opacity:1;stroke:#000000;stroke-width:0.5;stroke-linecap:round;stroke-linejoin:miter;stroke-dasharray:none;stroke-opacity:1"
               id="rect91724"
               width="15.58987"
               height="13.632812"
               x="313.59537"
               y="312.85999" />
            <rect
               style="fill:#000000;fill-opacity:1;stroke:#000000;stroke-width:0.5;stroke-linecap:round;stroke-linejoin:miter;stroke-dasharray:none;stroke-opacity:1"
               id="rect91726"
               width="15.58987"
               height="13.632812"
               x="329.18524"
               y="312.85999" />
            <rect
               style="fill:#ffffff;fill-opacity:1;stroke:#000000;stroke-width:0.5;stroke-linecap:round;stroke-linejoin:miter;stroke-dasharray:none;stroke-opacity:1"
               id="rect91728"
               width="15.58987"
               height="13.632812"
               x="344.77512"
               y="312.85999" />
            <rect
               style="fill:#000000;fill-opacity:1;stroke:#000000;stroke-width:0.5;stroke-linecap:round;stroke-linejoin:miter;stroke-dasharray:none;stroke-opacity:1"
               id="rect91730"
               width="15.58987"
               height="13.632812"
               x="360.36499"
               y="312.85999" />
          </g>
        </g>
        <rect
           style="fill:#ffffff;fill-opacity:1;stroke:#000000;stroke-width:0.5;stroke-linecap:round;stroke-linejoin:miter;stroke-dasharray:none;stroke-opacity:1"
           id="rect91746"
           width="15.58987"
           height="13.632812"
           x="422.72449"
           y="326.4928" />
        <rect
           style="fill:#000000;fill-opacity:1;stroke:#000000;stroke-width:0.5;stroke-linecap:round;stroke-linejoin:miter;stroke-dasharray:none;stroke-opacity:1"
           id="rect91748"
           width="15.58987"
           height="13.632812"
           x="313.59537"
           y="326.4928" />
        <rect
           style="fill:#ffffff;fill-opacity:1;stroke:#000000;stroke-width:0.5;stroke-linecap:round;stroke-linejoin:miter;stroke-dasharray:none;stroke-opacity:1"
           id="rect91750"
           width="15.58987"
           height="13.632812"
           x="329.18524"
           y="326.4928" />
        <rect
           style="fill:#000000;fill-opacity:1;stroke:#000000;stroke-width:0.5;stroke-linecap:round;stroke-linejoin:miter;stroke-dasharray:none;stroke-opacity:1"
           id="rect91752"
           width="15.58987"
           height="13.632812"
           x="344.77512"
           y="326.4928" />
        <g
           id="g91764"
           transform="translate(46.769623,13.632813)">
          <rect
             style="fill:#ffffff;fill-opacity:1;stroke:#000000;stroke-width:0.5;stroke-linecap:round;stroke-linejoin:miter;stroke-dasharray:none;stroke-opacity:1"
             id="rect91756"
             width="15.58987"
             height="13.632812"
             x="313.59537"
             y="312.85999" />
          <rect
             style="fill:#000000;fill-opacity:1;stroke:#000000;stroke-width:0.5;stroke-linecap:round;stroke-linejoin:miter;stroke-dasharray:none;stroke-opacity:1"
             id="rect91758"
             width="15.58987"
             height="13.632812"
             x="329.18524"
             y="312.85999" />
          <rect
             style="fill:#ffffff;fill-opacity:1;stroke:#000000;stroke-width:0.5;stroke-linecap:round;stroke-linejoin:miter;stroke-dasharray:none;stroke-opacity:1"
             id="rect91760"
             width="15.58987"
             height="13.632812"
             x="344.77512"
             y="312.85999" />
          <rect
             style="fill:#000000;fill-opacity:1;stroke:#000000;stroke-width:0.5;stroke-linecap:round;stroke-linejoin:miter;stroke-dasharray:none;stroke-opacity:1"
             id="rect91762"
             width="15.58987"
             height="13.632812"
             x="360.36499"
             y="312.85999" />
        </g>
      </g>
      <g
         id="g91958"
         transform="translate(0,27.265625)">
        <g
           id="g91938">
          <g
             id="g91926">
            <rect
               style="fill:#ffffff;fill-opacity:1;stroke:#000000;stroke-width:0.5;stroke-linecap:round;stroke-linejoin:miter;stroke-dasharray:none;stroke-opacity:1"
               id="rect91918"
               width="15.58987"
               height="13.632812"
               x="313.59537"
               y="312.85999" />
            <rect
               style="fill:#000000;fill-opacity:1;stroke:#000000;stroke-width:0.5;stroke-linecap:round;stroke-linejoin:miter;stroke-dasharray:none;stroke-opacity:1"
               id="rect91920"
               width="15.58987"
               height="13.632812"
               x="329.18524"
               y="312.85999" />
            <rect
               style="fill:#ffffff;fill-opacity:1;stroke:#000000;stroke-width:0.5;stroke-linecap:round;stroke-linejoin:miter;stroke-dasharray:none;stroke-opacity:1"
               id="rect91922"
               width="15.58987"
               height="13.632812"
               x="344.77512"
               y="312.85999" />
            <rect
               style="fill:#000000;fill-opacity:1;stroke:#000000;stroke-width:0.5;stroke-linecap:round;stroke-linejoin:miter;stroke-dasharray:none;stroke-opacity:1"
               id="rect91924"
               width="15.58987"
               height="13.632812"
               x="360.36499"
               y="312.85999" />
          </g>
          <g
             id="g91936"
             transform="translate(62.359497)">
            <rect
               style="fill:#ffffff;fill-opacity:1;stroke:#000000;stroke-width:0.5;stroke-linecap:round;stroke-linejoin:miter;stroke-dasharray:none;stroke-opacity:1"
               id="rect91928"
               width="15.58987"
               height="13.632812"
               x="313.59537"
               y="312.85999" />
            <rect
               style="fill:#000000;fill-opacity:1;stroke:#000000;stroke-width:0.5;stroke-linecap:round;stroke-linejoin:miter;stroke-dasharray:none;stroke-opacity:1"
               id="rect91930"
               width="15.58987"
               height="13.632812"
               x="329.18524"
               y="312.85999" />
            <rect
               style="fill:#ffffff;fill-opacity:1;stroke:#000000;stroke-width:0.5;stroke-linecap:round;stroke-linejoin:miter;stroke-dasharray:none;stroke-opacity:1"
               id="rect91932"
               width="15.58987"
               height="13.632812"
               x="344.77512"
               y="312.85999" />
            <rect
               style="fill:#000000;fill-opacity:1;stroke:#000000;stroke-width:0.5;stroke-linecap:round;stroke-linejoin:miter;stroke-dasharray:none;stroke-opacity:1"
               id="rect91934"
               width="15.58987"
               height="13.632812"
               x="360.36499"
               y="312.85999" />
          </g>
        </g>
        <rect
           style="fill:#ffffff;fill-opacity:1;stroke:#000000;stroke-width:0.5;stroke-linecap:round;stroke-linejoin:miter;stroke-dasharray:none;stroke-opacity:1"
           id="rect91940"
           width="15.58987"
           height="13.632812"
           x="422.72449"
           y="326.4928" />
        <rect
           style="fill:#000000;fill-opacity:1;stroke:#000000;stroke-width:0.5;stroke-linecap:round;stroke-linejoin:miter;stroke-dasharray:none;stroke-opacity:1"
           id="rect91942"
           width="15.58987"
           height="13.632812"
           x="313.59537"
           y="326.4928" />
        <rect
           style="fill:#ffffff;fill-opacity:1;stroke:#000000;stroke-width:0.5;stroke-linecap:round;stroke-linejoin:miter;stroke-dasharray:none;stroke-opacity:1"
           id="rect91944"
           width="15.58987"
           height="13.632812"
           x="329.18524"
           y="326.4928" />
        <rect
           style="fill:#000000;fill-opacity:1;stroke:#000000;stroke-width:0.5;stroke-linecap:round;stroke-linejoin:miter;stroke-dasharray:none;stroke-opacity:1"
           id="rect91946"
           width="15.58987"
           height="13.632812"
           x="344.77512"
           y="326.4928" />
        <g
           id="g91956"
           transform="translate(46.769623,13.632813)">
          <rect
             style="fill:#ffffff;fill-opacity:1;stroke:#000000;stroke-width:0.5;stroke-linecap:round;stroke-linejoin:miter;stroke-dasharray:none;stroke-opacity:1"
             id="rect91948"
             width="15.58987"
             height="13.632812"
             x="313.59537"
             y="312.85999" />
          <rect
             style="fill:#000000;fill-opacity:1;stroke:#000000;stroke-width:0.5;stroke-linecap:round;stroke-linejoin:miter;stroke-dasharray:none;stroke-opacity:1"
             id="rect91950"
             width="15.58987"
             height="13.632812"
             x="329.18524"
             y="312.85999" />
          <rect
             style="fill:#ffffff;fill-opacity:1;stroke:#000000;stroke-width:0.5;stroke-linecap:round;stroke-linejoin:miter;stroke-dasharray:none;stroke-opacity:1"
             id="rect91952"
             width="15.58987"
             height="13.632812"
             x="344.77512"
             y="312.85999" />
          <rect
             style="fill:#000000;fill-opacity:1;stroke:#000000;stroke-width:0.5;stroke-linecap:round;stroke-linejoin:miter;stroke-dasharray:none;stroke-opacity:1"
             id="rect91954"
             width="15.58987"
             height="13.632812"
             x="360.36499"
             y="312.85999" />
        </g>
      </g>
      <g
         id="g92000"
         transform="translate(0,81.796875)">
        <g
           id="g91980">
          <g
             id="g91968">
            <rect
               style="fill:#ffffff;fill-opacity:1;stroke:#000000;stroke-width:0.5;stroke-linecap:round;stroke-linejoin:miter;stroke-dasharray:none;stroke-opacity:1"
               id="rect91960"
               width="15.58987"
               height="13.632812"
               x="313.59537"
               y="312.85999" />
            <rect
               style="fill:#000000;fill-opacity:1;stroke:#000000;stroke-width:0.5;stroke-linecap:round;stroke-linejoin:miter;stroke-dasharray:none;stroke-opacity:1"
               id="rect91962"
               width="15.58987"
               height="13.632812"
               x="329.18524"
               y="312.85999" />
            <rect
               style="fill:#ffffff;fill-opacity:1;stroke:#000000;stroke-width:0.5;stroke-linecap:round;stroke-linejoin:miter;stroke-dasharray:none;stroke-opacity:1"
               id="rect91964"
               width="15.58987"
               height="13.632812"
               x="344.77512"
               y="312.85999" />
            <rect
               style="fill:#000000;fill-opacity:1;stroke:#000000;stroke-width:0.5;stroke-linecap:round;stroke-linejoin:miter;stroke-dasharray:none;stroke-opacity:1"
               id="rect91966"
               width="15.58987"
               height="13.632812"
               x="360.36499"
               y="312.85999" />
          </g>
          <g
             id="g91978"
             transform="translate(62.359497)">
            <rect
               style="fill:#ffffff;fill-opacity:1;stroke:#000000;stroke-width:0.5;stroke-linecap:round;stroke-linejoin:miter;stroke-dasharray:none;stroke-opacity:1"
               id="rect91970"
               width="15.58987"
               height="13.632812"
               x="313.59537"
               y="312.85999" />
            <rect
               style="fill:#000000;fill-opacity:1;stroke:#000000;stroke-width:0.5;stroke-linecap:round;stroke-linejoin:miter;stroke-dasharray:none;stroke-opacity:1"
               id="rect91972"
               width="15.58987"
               height="13.632812"
               x="329.18524"
               y="312.85999" />
            <rect
               style="fill:#ffffff;fill-opacity:1;stroke:#000000;stroke-width:0.5;stroke-linecap:round;stroke-linejoin:miter;stroke-dasharray:none;stroke-opacity:1"
               id="rect91974"
               width="15.58987"
               height="13.632812"
               x="344.77512"
               y="312.85999" />
            <rect
               style="fill:#000000;fill-opacity:1;stroke:#000000;stroke-width:0.5;stroke-linecap:round;stroke-linejoin:miter;stroke-dasharray:none;stroke-opacity:1"
               id="rect91976"
               width="15.58987"
               height="13.632812"
               x="360.36499"
               y="312.85999" />
          </g>
        </g>
        <rect
           style="fill:#ffffff;fill-opacity:1;stroke:#000000;stroke-width:0.5;stroke-linecap:round;stroke-linejoin:miter;stroke-dasharray:none;stroke-opacity:1"
           id="rect91982"
           width="15.58987"
           height="13.632812"
           x="422.72449"
           y="326.4928" />
        <rect
           style="fill:#000000;fill-opacity:1;stroke:#000000;stroke-width:0.5;stroke-linecap:round;stroke-linejoin:miter;stroke-dasharray:none;stroke-opacity:1"
           id="rect91984"
           width="15.58987"
           height="13.632812"
           x="313.59537"
           y="326.4928" />
        <rect
           style="fill:#ffffff;fill-opacity:1;stroke:#000000;stroke-width:0.5;stroke-linecap:round;stroke-linejoin:miter;stroke-dasharray:none;stroke-opacity:1"
           id="rect91986"
           width="15.58987"
           height="13.632812"
           x="329.18524"
           y="326.4928" />
        <rect
           style="fill:#000000;fill-opacity:1;stroke:#000000;stroke-width:0.5;stroke-linecap:round;stroke-linejoin:miter;stroke-dasharray:none;stroke-opacity:1"
           id="rect91988"
           width="15.58987"
           height="13.632812"
           x="344.77512"
           y="326.4928" />
        <g
           id="g91998"
           transform="translate(46.769623,13.632813)">
          <rect
             style="fill:#ffffff;fill-opacity:1;stroke:#000000;stroke-width:0.5;stroke-linecap:round;stroke-linejoin:miter;stroke-dasharray:none;stroke-opacity:1"
             id="rect91990"
             width="15.58987"
             height="13.632812"
             x="313.59537"
             y="312.85999" />
          <rect
             style="fill:#000000;fill-opacity:1;stroke:#000000;stroke-width:0.5;stroke-linecap:round;stroke-linejoin:miter;stroke-dasharray:none;stroke-opacity:1"
             id="rect91992"
             width="15.58987"
             height="13.632812"
             x="329.18524"
             y="312.85999" />
          <rect
             style="fill:#ffffff;fill-opacity:1;stroke:#000000;stroke-width:0.5;stroke-linecap:round;stroke-linejoin:miter;stroke-dasharray:none;stroke-opacity:1"
             id="rect91994"
             width="15.58987"
             height="13.632812"
             x="344.77512"
             y="312.85999" />
          <rect
             style="fill:#000000;fill-opacity:1;stroke:#000000;stroke-width:0.5;stroke-linecap:round;stroke-linejoin:miter;stroke-dasharray:none;stroke-opacity:1"
             id="rect91996"
             width="15.58987"
             height="13.632812"
             x="360.36499"
             y="312.85999" />
        </g>
      </g>
      <g
         id="g92042"
         transform="translate(0,54.53125)">
        <g
           id="g92022">
          <g
             id="g92010">
            <rect
               style="fill:#ffffff;fill-opacity:1;stroke:#000000;stroke-width:0.5;stroke-linecap:round;stroke-linejoin:miter;stroke-dasharray:none;stroke-opacity:1"
               id="rect92002"
               width="15.58987"
               height="13.632812"
               x="313.59537"
               y="312.85999" />
            <rect
               style="fill:#000000;fill-opacity:1;stroke:#000000;stroke-width:0.5;stroke-linecap:round;stroke-linejoin:miter;stroke-dasharray:none;stroke-opacity:1"
               id="rect92004"
               width="15.58987"
               height="13.632812"
               x="329.18524"
               y="312.85999" />
            <rect
               style="fill:#ffffff;fill-opacity:1;stroke:#000000;stroke-width:0.5;stroke-linecap:round;stroke-linejoin:miter;stroke-dasharray:none;stroke-opacity:1"
               id="rect92006"
               width="15.58987"
               height="13.632812"
               x="344.77512"
               y="312.85999" />
            <rect
               style="fill:#000000;fill-opacity:1;stroke:#000000;stroke-width:0.5;stroke-linecap:round;stroke-linejoin:miter;stroke-dasharray:none;stroke-opacity:1"
               id="rect92008"
               width="15.58987"
               height="13.632812"
               x="360.36499"
               y="312.85999" />
          </g>
          <g
             id="g92020"
             transform="translate(62.359497)">
            <rect
               style="fill:#ffffff;fill-opacity:1;stroke:#000000;stroke-width:0.5;stroke-linecap:round;stroke-linejoin:miter;stroke-dasharray:none;stroke-opacity:1"
               id="rect92012"
               width="15.58987"
               height="13.632812"
               x="313.59537"
               y="312.85999" />
            <rect
               style="fill:#000000;fill-opacity:1;stroke:#000000;stroke-width:0.5;stroke-linecap:round;stroke-linejoin:miter;stroke-dasharray:none;stroke-opacity:1"
               id="rect92014"
               width="15.58987"
               height="13.632812"
               x="329.18524"
               y="312.85999" />
            <rect
               style="fill:#ffffff;fill-opacity:1;stroke:#000000;stroke-width:0.5;stroke-linecap:round;stroke-linejoin:miter;stroke-dasharray:none;stroke-opacity:1"
               id="rect92016"
               width="15.58987"
               height="13.632812"
               x="344.77512"
               y="312.85999" />
            <rect
               style="fill:#000000;fill-opacity:1;stroke:#000000;stroke-width:0.5;stroke-linecap:round;stroke-linejoin:miter;stroke-dasharray:none;stroke-opacity:1"
               id="rect92018"
               width="15.58987"
               height="13.632812"
               x="360.36499"
               y="312.85999" />
          </g>
        </g>
        <rect
           style="fill:#ffffff;fill-opacity:1;stroke:#000000;stroke-width:0.5;stroke-linecap:round;stroke-linejoin:miter;stroke-dasharray:none;stroke-opacity:1"
           id="rect92024"
           width="15.58987"
           height="13.632812"
           x="422.72449"
           y="326.4928" />
        <rect
           style="fill:#000000;fill-opacity:1;stroke:#000000;stroke-width:0.5;stroke-linecap:round;stroke-linejoin:miter;stroke-dasharray:none;stroke-opacity:1"
           id="rect92026"
           width="15.58987"
           height="13.632812"
           x="313.59537"
           y="326.4928" />
        <rect
           style="fill:#ffffff;fill-opacity:1;stroke:#000000;stroke-width:0.5;stroke-linecap:round;stroke-linejoin:miter;stroke-dasharray:none;stroke-opacity:1"
           id="rect92028"
           width="15.58987"
           height="13.632812"
           x="329.18524"
           y="326.4928" />
        <rect
           style="fill:#000000;fill-opacity:1;stroke:#000000;stroke-width:0.5;stroke-linecap:round;stroke-linejoin:miter;stroke-dasharray:none;stroke-opacity:1"
           id="rect92030"
           width="15.58987"
           height="13.632812"
           x="344.77512"
           y="326.4928" />
        <g
           id="g92040"
           transform="translate(46.769623,13.632813)">
          <rect
             style="fill:#ffffff;fill-opacity:1;stroke:#000000;stroke-width:0.5;stroke-linecap:round;stroke-linejoin:miter;stroke-dasharray:none;stroke-opacity:1"
             id="rect92032"
             width="15.58987"
             height="13.632812"
             x="313.59537"
             y="312.85999" />
          <rect
             style="fill:#000000;fill-opacity:1;stroke:#000000;stroke-width:0.5;stroke-linecap:round;stroke-linejoin:miter;stroke-dasharray:none;stroke-opacity:1"
             id="rect92034"
             width="15.58987"
             height="13.632812"
             x="329.18524"
             y="312.85999" />
          <rect
             style="fill:#ffffff;fill-opacity:1;stroke:#000000;stroke-width:0.5;stroke-linecap:round;stroke-linejoin:miter;stroke-dasharray:none;stroke-opacity:1"
             id="rect92036"
             width="15.58987"
             height="13.632812"
             x="344.77512"
             y="312.85999" />
          <rect
             style="fill:#000000;fill-opacity:1;stroke:#000000;stroke-width:0.5;stroke-linecap:round;stroke-linejoin:miter;stroke-dasharray:none;stroke-opacity:1"
             id="rect92038"
             width="15.58987"
             height="13.632812"
             x="360.36499"
             y="312.85999" />
        </g>
      </g>
    </g>
  </g>
</svg>
