<?xml version="1.0" encoding="UTF-8" standalone="no"?>
<!-- Created with Inkscape (http://www.inkscape.org/) -->

<svg
   width="2000"
   height="2000"
   viewBox="0 0 529.16665 529.16666"
   version="1.1"
   id="svg158982"
   inkscape:export-filename="pringles.png"
   inkscape:export-xdpi="96"
   inkscape:export-ydpi="96"
   inkscape:version="1.2.1 (9c6d41e, 2022-07-14)"
   sodipodi:docname="pringles.svg"
   xmlns:inkscape="http://www.inkscape.org/namespaces/inkscape"
   xmlns:sodipodi="http://sodipodi.sourceforge.net/DTD/sodipodi-0.dtd"
   xmlns="http://www.w3.org/2000/svg"
   xmlns:svg="http://www.w3.org/2000/svg">
  <sodipodi:namedview
     id="namedview158984"
     pagecolor="#ffffff"
     bordercolor="#000000"
     borderopacity="0.25"
     inkscape:showpageshadow="2"
     inkscape:pageopacity="0.0"
     inkscape:pagecheckerboard="0"
     inkscape:deskcolor="#d1d1d1"
     inkscape:document-units="mm"
     showgrid="false"
     showguides="true"
     inkscape:zoom="0.15709407"
     inkscape:cx="697.03459"
     inkscape:cy="954.8419"
     inkscape:window-width="1440"
     inkscape:window-height="900"
     inkscape:window-x="0"
     inkscape:window-y="0"
     inkscape:window-maximized="0"
     inkscape:current-layer="layer1">
    <sodipodi:guide
       position="263.02363,142.04641"
       orientation="1,0"
       id="guide201201"
       inkscape:locked="false" />
  </sodipodi:namedview>
  <defs
     id="defs158979">
    <rect
       x="1206.2994"
       y="1040.1845"
       width="219.33746"
       height="123.25346"
       id="rect184759" />
  </defs>
  <g
     inkscape:label="Layer 1"
     inkscape:groupmode="layer"
     id="layer1">
    <rect
       style="fill:#bcbcbc;fill-opacity:0.99529409;stroke:none;stroke-width:2.187;stroke-linecap:round;stroke-linejoin:round;stroke-dasharray:none;stroke-opacity:1"
       id="rect222254"
       width="529.16669"
       height="529.16669"
       x="0"
       y="0" />
    <path
       style="fill:none;fill-opacity:1;stroke:#000000;stroke-width:2;stroke-linecap:round;stroke-linejoin:round;stroke-dasharray:none;stroke-opacity:1"
       d="m 143.19672,474.55028 c 85.28457,-18.47252 165.20988,-17.35649 241.63962,0"
       id="path203383"
       sodipodi:nodetypes="cc" />
    <path
       style="fill:#a1af2d;fill-opacity:0.51999998;stroke:none;stroke-width:1.95293;stroke-linecap:round;stroke-linejoin:round;stroke-dasharray:none;stroke-opacity:1"
       d="m 262.98277,427.99201 c -27.28318,0.0398 -54.1666,7.82341 -78.25973,20.37484 -12.92333,6.68838 -25.15756,14.67083 -36.77944,23.40674 -0.66767,1.00094 0.89297,1.02148 1.48727,0.74525 27.03683,-5.50304 54.43599,-9.29534 81.98385,-10.97288 17.17689,-1.2351 34.42233,-1.05545 51.63308,-0.82193 30.88148,1.06548 61.66879,4.70123 91.92622,10.99834 1.65913,0.14774 3.37505,0.98565 5.01142,0.74387 0.41804,-0.97843 -1.14586,-1.3776 -1.64859,-1.98361 -22.72014,-16.67343 -47.96838,-30.48883 -75.41114,-37.48553 -13.03415,-3.33536 -26.48493,-5.06881 -39.94294,-5.00509 z"
       id="path210854" />
    <g
       id="g219973"
       transform="translate(0.99289345,86.430038)">
      <g
         id="g217475">
        <path
           style="fill:none;fill-opacity:1;stroke:#000000;stroke-width:2;stroke-linecap:round;stroke-linejoin:round;stroke-dasharray:none;stroke-opacity:1"
           d="m 142.20383,388.12025 c 81.18337,-63.864 161.71288,-62.1564 241.63962,0"
           id="path201197"
           sodipodi:nodetypes="cc" />
        <path
           style="fill:none;fill-opacity:1;stroke:#000000;stroke-width:2;stroke-linecap:round;stroke-linejoin:round;stroke-dasharray:none;stroke-opacity:1"
           d="m 142.20383,378.66387 c 81.18337,-63.864 161.71288,-62.1564 241.63962,0"
           id="path203381"
           sodipodi:nodetypes="cc" />
        <path
           style="fill:none;fill-opacity:1;stroke:#000000;stroke-width:2;stroke-linecap:round;stroke-linejoin:round;stroke-dasharray:none;stroke-opacity:1"
           d="m 142.20383,331.0888 c 81.18337,-63.864 161.71288,-62.1564 241.63962,0"
           id="path203385"
           sodipodi:nodetypes="cc" />
        <path
           style="fill:none;fill-opacity:1;stroke:#000000;stroke-width:2;stroke-linecap:round;stroke-linejoin:round;stroke-dasharray:none;stroke-opacity:1"
           d="m 142.20383,339.07065 c 81.18337,-63.864 161.71288,-62.1564 241.63962,0"
           id="path203387"
           sodipodi:nodetypes="cc" />
        <path
           style="fill:none;fill-opacity:1;stroke:#000000;stroke-width:2;stroke-linecap:round;stroke-linejoin:round;stroke-dasharray:none;stroke-opacity:1"
           d="m 142.20383,345.04844 c 81.18337,-63.864 161.71288,-62.1564 241.63962,0"
           id="path203389"
           sodipodi:nodetypes="cc" />
        <path
           style="fill:none;fill-opacity:1;stroke:#000000;stroke-width:2;stroke-linecap:round;stroke-linejoin:round;stroke-dasharray:none;stroke-opacity:1"
           d="m 142.20383,354.71832 c 81.18337,-63.864 161.71288,-62.1564 241.63962,0"
           id="path203391"
           sodipodi:nodetypes="cc" />
        <path
           style="fill:none;fill-opacity:1;stroke:#000000;stroke-width:2;stroke-linecap:round;stroke-linejoin:round;stroke-dasharray:none;stroke-opacity:1"
           d="m 142.20383,362.70017 c 81.18337,-63.864 161.71288,-62.1564 241.63962,0"
           id="path203393"
           sodipodi:nodetypes="cc" />
        <path
           style="fill:none;fill-opacity:1;stroke:#000000;stroke-width:2;stroke-linecap:round;stroke-linejoin:round;stroke-dasharray:none;stroke-opacity:1"
           d="m 142.20383,368.67796 c 81.18337,-63.864 161.71288,-62.1564 241.63962,0"
           id="path203395"
           sodipodi:nodetypes="cc" />
        <path
           style="fill:none;fill-opacity:1;stroke:#000000;stroke-width:2;stroke-linecap:round;stroke-linejoin:round;stroke-dasharray:none;stroke-opacity:1"
           d="m 142.20383,331.08878 c -1.70649,2.85817 -0.90622,5.42615 0,7.98187 -1.72632,3.39149 -0.87965,4.698 0,5.97779 -1.71467,4.21576 -0.89532,6.96481 0,9.66988 -1.29195,3.10929 -1.37419,5.79847 0,7.98185 -1.62871,0.41462 -1.00593,3.0106 0,5.97778 -1.79233,4.58062 -0.78753,7.20738 0,9.98591 -1.68496,4.71256 -0.93452,7.16971 0,9.45639"
           id="path203397"
           sodipodi:nodetypes="cccccccc" />
        <path
           style="fill:none;fill-opacity:1;stroke:#000000;stroke-width:2;stroke-linecap:round;stroke-linejoin:round;stroke-dasharray:none;stroke-opacity:1"
           d="m 383.84345,331.08878 c 1.04927,3.08076 1.59319,5.95917 0,7.98187 0.8035,1.9926 1.78119,3.98519 0,5.97779 1.20321,3.22329 1.45832,6.44659 0,9.66988 1.11738,2.66062 1.53522,5.32123 0,7.98185 1.39371,0.37775 1.2718,2.5116 0,5.97778 1.83542,4.78943 0.72414,7.2336 0,9.98591 1.69644,5.38444 0.9195,7.51421 0,9.45639"
           id="path203399"
           sodipodi:nodetypes="cccccccc" />
        <path
           style="fill:#f2ff7a;fill-opacity:0.8;stroke:none;stroke-width:8.26583;stroke-linecap:round;stroke-linejoin:round;stroke-dasharray:none;stroke-opacity:1"
           d="m 988.55969,1256.0303 c -112.36098,0.4487 -222.39218,35.9392 -319.61841,90.9372 -43.56475,24.6748 -85.44892,52.4869 -124.62042,83.6719 -8.04931,6.8465 -8.50189,19.3492 -5.67437,28.7498 4.06405,1.8452 7.26676,-4.8217 10.88508,-6.0853 80.64497,-61.3563 170.03833,-112.825 267.55588,-141.8903 102.17907,-31.4526 212.69265,-34.6762 316.50185,-9.4196 112.7835,26.8055 216.1404,83.6705 307.8799,153.4379 2.2834,1.2049 7.3757,6.5617 8.9504,2.1506 0.6775,-8.197 1.0636,-17.9253 -4.1688,-24.7904 -18.5475,-15.9904 -39.1714,-29.4912 -59.2219,-43.5281 -117.2511,-79.3599 -255.1198,-134.8489 -398.46921,-133.2337 z"
           id="path204940"
           transform="scale(0.26458333)" />
        <path
           style="fill:#f2ff7b;fill-opacity:0.802353;stroke:none;stroke-width:10.7432;stroke-linecap:round;stroke-linejoin:round;stroke-dasharray:none;stroke-opacity:1"
           d="m 990.0638,1217.6943 c -125.43691,0.3614 -247.5974,43.9174 -353.29506,109.6757 -33.69278,20.8958 -66.27547,43.867 -97.18603,68.5504 -2.7465,8.5665 -4.84358,19.1217 -0.61939,27.4845 4.83499,2.0226 8.52248,-5.1163 12.72083,-6.8306 102.65219,-77.6117 220.82214,-139.609 349.0927,-159.4442 108.19515,-17.2416 220.51995,-2.6262 322.26965,37.8913 80.1185,31.1974 154.1365,76.5209 222.5297,128.3225 6.227,2.6948 5.8296,-6.6267 5.7116,-10.3825 0.02,-7.5345 -0.1433,-16.3598 -7.6434,-20.5771 -51.0644,-40.7998 -106.8556,-75.7419 -165.465,-104.6551 -89.4243,-43.7756 -188.0975,-70.8909 -288.1156,-70.0349 z"
           id="path215868"
           transform="scale(0.26458333)" />
        <path
           style="fill:#f5ff7a;fill-opacity:0.8;stroke:none;stroke-width:10.7432;stroke-linecap:round;stroke-linejoin:round;stroke-dasharray:none;stroke-opacity:1"
           d="m 982.11826,1195.3022 c -84.81144,1.3176 -168.8277,22.3702 -246.0931,56.8778 -52.21128,24.0471 -102.43125,52.3944 -149.23934,85.8116 -16.99694,12.112 -34.29896,24.2564 -50.23663,37.5395 -0.11044,3.5884 1.3e-4,12.3019 5.50095,10.4181 73.34791,-56.2076 153.35738,-104.965 240.67965,-136.0686 99.00898,-36.1989 207.58153,-47.2521 311.47371,-28.7897 126.5802,21.6516 243.3483,82.6695 344.9388,159.6894 3.425,1.2026 8.0772,8.8615 11.252,4.4327 2.3411,-4.9291 1.5741,-10.8949 -3.6504,-13.6267 -98.5835,-76.536 -211.3003,-138.3799 -334.2631,-164.2085 -42.7982,-9.0508 -86.6864,-12.1138 -130.36254,-12.0756 z"
           id="path215939"
           transform="scale(0.26458333)" />
        <path
           style="fill:#f2ff7b;fill-opacity:0.802353;stroke:none;stroke-width:10.7432;stroke-linecap:round;stroke-linejoin:round;stroke-dasharray:none;stroke-opacity:1"
           d="m 989.51801,1164.9924 c -116.67099,0.1399 -230.63406,38.3861 -330.80929,96.6103 -40.06757,23.5172 -78.76716,49.5638 -115.2294,78.3614 -6.91111,4.9054 -7.94815,15.238 -6.11273,22.773 5.15403,2.7514 9.97269,-4.5143 14.31924,-6.4837 100.99943,-76.6775 217.30748,-137.2786 343.11284,-158.3823 112.77803,-19.3641 230.22493,-3.4634 335.96133,39.6515 76.3707,30.2381 146.1023,74.7283 212.0365,123.2243 2.6507,3.1952 9.1659,3.6415 8.7376,-1.8303 -0.1928,-7.8853 -0.5741,-17.4605 -9.0514,-20.9091 -93.2781,-70.8228 -198.043,-130.0154 -312.8492,-156.8956 -45.8749,-10.7497 -92.9813,-16.3844 -140.11549,-16.1195 z"
           id="path215941"
           transform="scale(0.26458333)" />
        <path
           style="fill:#f5ff7a;fill-opacity:0.8;stroke:none;stroke-width:10.7432;stroke-linecap:round;stroke-linejoin:round;stroke-dasharray:none;stroke-opacity:1"
           d="m 988.36807,1128.3135 c -123.00344,0.6002 -242.67752,43.102 -346.77836,106.8522 -35.27332,21.9285 -70.10488,45.0204 -101.75315,71.978 -3.76226,7.2381 -3.01471,16.4598 -2.15519,24.4002 3.22538,4.4753 8.34966,-2.9156 11.82664,-4.1491 67.88677,-51.0125 141.11784,-95.9337 220.93984,-125.7034 55.70369,-20.7254 114.29083,-35.4773 173.4285,-40.1544 48.81355,-1.8364 98.12035,-3.0263 146.32145,5.9457 118.8296,19.3408 228.9537,74.8956 326.3937,144.04 10.9941,7.3774 21.0797,16.606 32.3838,23.1512 5.0419,-8.4132 1.9249,-19.7534 -0.396,-28.6699 -95.9228,-74.2742 -204.5851,-135.2876 -323.6539,-162.4274 -44.7406,-10.2613 -90.636,-15.6667 -136.55733,-15.2631 z"
           id="path215945"
           transform="scale(0.26458333)" />
        <path
           style="fill:#f2ff7b;fill-opacity:0.802353;stroke:none;stroke-width:10.7432;stroke-linecap:round;stroke-linejoin:round;stroke-dasharray:none;stroke-opacity:1"
           d="m 983.51952,1106.3452 c -68.36743,-0.3682 -136.00297,15.035 -200.22348,37.6273 -86.45586,31.2288 -166.47835,78.8517 -238.35329,135.8451 -4.95565,4.0142 -11.54302,12.1394 -6.96691,18.3906 6.34961,-1.056 11.08285,-8.0777 16.85649,-11.0921 103.89119,-78.7153 224.40958,-139.6506 354.30614,-158.1953 48.61686,-7.5277 98.20423,-6.1515 147.18393,-2.7868 82.108,9.0319 161.9318,35.045 235.3801,72.6798 54.0299,26.9015 104.2405,60.7879 152.929,96.3457 2.0221,2.4029 7.8471,3.8375 6.961,-0.9698 -1.4639,-13.4256 -16.1153,-18.9266 -24.9224,-27.0309 -49.7434,-36.8642 -102.5506,-69.7188 -158.7648,-95.8105 -71.4601,-34.8887 -149.3976,-57.0113 -228.6656,-63.7908 -18.5484,-1.1239 -37.1421,-1.3333 -55.72018,-1.2123 z"
           id="path215947"
           transform="scale(0.26458333)" />
        <path
           style="fill:#f5ff7a;fill-opacity:0.8;stroke:none;stroke-width:10.7432;stroke-linecap:round;stroke-linejoin:round;stroke-dasharray:none;stroke-opacity:1"
           d="m 983.91298,1076.3451 c -61.1758,-0.631 -121.84256,11.6916 -179.94239,30.1493 -94.43547,30.8378 -180.95298,82.4053 -259.1321,143.0939 -7.8198,5.0106 -11.01575,17.1492 -5.66448,24.7655 5.38868,0.6293 8.83927,-6.5809 13.59139,-8.4918 79.89612,-59.5737 167.64211,-110.2012 263.52033,-138.9706 105.97902,-32.7066 220.69717,-35.4346 327.94057,-7.1182 108.6426,27.8616 208.2948,83.8896 297.5642,150.9696 2.5234,2.2185 9.8367,6.7263 10.0152,0.3617 0.1878,-8.3777 -2.0272,-17.3829 -9.6311,-22.0672 -46.5446,-36.9861 -97.124,-68.8998 -149.8072,-96.4 -78.4181,-40.393 -164.2747,-67.5453 -252.3305,-75.1473 -18.6864,-1.0559 -37.4116,-1.2581 -56.12392,-1.1449 z"
           id="path215949"
           transform="scale(0.26458333)" />
      </g>
      <g
         id="g217511"
         transform="translate(6.4711492e-4,-63.040967)">
        <path
           style="fill:none;fill-opacity:1;stroke:#000000;stroke-width:2;stroke-linecap:round;stroke-linejoin:round;stroke-dasharray:none;stroke-opacity:1"
           d="m 142.20383,388.12025 c 81.18337,-63.864 161.71288,-62.1564 241.63962,0"
           id="path217477"
           sodipodi:nodetypes="cc" />
        <path
           style="fill:none;fill-opacity:1;stroke:#000000;stroke-width:2;stroke-linecap:round;stroke-linejoin:round;stroke-dasharray:none;stroke-opacity:1"
           d="m 142.20383,378.66387 c 81.18337,-63.864 161.71288,-62.1564 241.63962,0"
           id="path217479"
           sodipodi:nodetypes="cc" />
        <path
           style="fill:none;fill-opacity:1;stroke:#000000;stroke-width:2;stroke-linecap:round;stroke-linejoin:round;stroke-dasharray:none;stroke-opacity:1"
           d="m 142.20383,331.0888 c 81.18337,-63.864 161.71288,-62.1564 241.63962,0"
           id="path217481"
           sodipodi:nodetypes="cc" />
        <path
           style="fill:none;fill-opacity:1;stroke:#000000;stroke-width:2;stroke-linecap:round;stroke-linejoin:round;stroke-dasharray:none;stroke-opacity:1"
           d="m 142.20383,339.07065 c 81.18337,-63.864 161.71288,-62.1564 241.63962,0"
           id="path217483"
           sodipodi:nodetypes="cc" />
        <path
           style="fill:none;fill-opacity:1;stroke:#000000;stroke-width:2;stroke-linecap:round;stroke-linejoin:round;stroke-dasharray:none;stroke-opacity:1"
           d="m 142.20383,345.04844 c 81.18337,-63.864 161.71288,-62.1564 241.63962,0"
           id="path217485"
           sodipodi:nodetypes="cc" />
        <path
           style="fill:none;fill-opacity:1;stroke:#000000;stroke-width:2;stroke-linecap:round;stroke-linejoin:round;stroke-dasharray:none;stroke-opacity:1"
           d="m 142.20383,354.71832 c 81.18337,-63.864 161.71288,-62.1564 241.63962,0"
           id="path217487"
           sodipodi:nodetypes="cc" />
        <path
           style="fill:none;fill-opacity:1;stroke:#000000;stroke-width:2;stroke-linecap:round;stroke-linejoin:round;stroke-dasharray:none;stroke-opacity:1"
           d="m 142.20383,362.70017 c 81.18337,-63.864 161.71288,-62.1564 241.63962,0"
           id="path217489"
           sodipodi:nodetypes="cc" />
        <path
           style="fill:none;fill-opacity:1;stroke:#000000;stroke-width:2;stroke-linecap:round;stroke-linejoin:round;stroke-dasharray:none;stroke-opacity:1"
           d="m 142.20383,368.67796 c 81.18337,-63.864 161.71288,-62.1564 241.63962,0"
           id="path217491"
           sodipodi:nodetypes="cc" />
        <path
           style="fill:none;fill-opacity:1;stroke:#000000;stroke-width:2;stroke-linecap:round;stroke-linejoin:round;stroke-dasharray:none;stroke-opacity:1"
           d="m 142.20383,331.08878 c -1.70649,2.85817 -0.90622,5.42615 0,7.98187 -1.72632,3.39149 -0.87965,4.698 0,5.97779 -1.71467,4.21576 -0.89532,6.96481 0,9.66988 -1.29195,3.10929 -1.37419,5.79847 0,7.98185 -1.62871,0.41462 -1.00593,3.0106 0,5.97778 -1.79233,4.58062 -0.78753,7.20738 0,9.98591 -1.68496,4.71256 -0.93452,7.16971 0,9.45639"
           id="path217493"
           sodipodi:nodetypes="cccccccc" />
        <path
           style="fill:none;fill-opacity:1;stroke:#000000;stroke-width:2;stroke-linecap:round;stroke-linejoin:round;stroke-dasharray:none;stroke-opacity:1"
           d="m 383.84345,331.08878 c 1.04927,3.08076 1.59319,5.95917 0,7.98187 0.8035,1.9926 1.78119,3.98519 0,5.97779 1.20321,3.22329 1.45832,6.44659 0,9.66988 1.11738,2.66062 1.53522,5.32123 0,7.98185 1.39371,0.37775 1.2718,2.5116 0,5.97778 1.83542,4.78943 0.72414,7.2336 0,9.98591 1.69644,5.38444 0.9195,7.51421 0,9.45639"
           id="path217495"
           sodipodi:nodetypes="cccccccc" />
        <path
           style="fill:#f2ff7a;fill-opacity:0.8;stroke:none;stroke-width:8.26583;stroke-linecap:round;stroke-linejoin:round;stroke-dasharray:none;stroke-opacity:1"
           d="m 988.55969,1256.0303 c -112.36098,0.4487 -222.39218,35.9392 -319.61841,90.9372 -43.56475,24.6748 -85.44892,52.4869 -124.62042,83.6719 -8.04931,6.8465 -8.50189,19.3492 -5.67437,28.7498 4.06405,1.8452 7.26676,-4.8217 10.88508,-6.0853 80.64497,-61.3563 170.03833,-112.825 267.55588,-141.8903 102.17907,-31.4526 212.69265,-34.6762 316.50185,-9.4196 112.7835,26.8055 216.1404,83.6705 307.8799,153.4379 2.2834,1.2049 7.3757,6.5617 8.9504,2.1506 0.6775,-8.197 1.0636,-17.9253 -4.1688,-24.7904 -18.5475,-15.9904 -39.1714,-29.4912 -59.2219,-43.5281 -117.2511,-79.3599 -255.1198,-134.8489 -398.46921,-133.2337 z"
           id="path217497"
           transform="scale(0.26458333)" />
        <path
           style="fill:#f2ff7a;fill-opacity:0.8;stroke:none;stroke-width:10.7432;stroke-linecap:round;stroke-linejoin:round;stroke-dasharray:none;stroke-opacity:1"
           d="m 990.0638,1217.6943 c -125.43691,0.3614 -247.5974,43.9174 -353.29506,109.6757 -33.69278,20.8958 -66.27547,43.867 -97.18603,68.5504 -2.7465,8.5665 -4.84358,19.1217 -0.61939,27.4845 4.83499,2.0226 8.52248,-5.1163 12.72083,-6.8306 102.65219,-77.6117 220.82214,-139.609 349.0927,-159.4442 108.19515,-17.2416 220.51995,-2.6262 322.26965,37.8913 80.1185,31.1974 154.1365,76.5209 222.5297,128.3225 6.227,2.6948 5.8296,-6.6267 5.7116,-10.3825 0.02,-7.5345 -0.1433,-16.3598 -7.6434,-20.5771 -51.0644,-40.7998 -106.8556,-75.7419 -165.465,-104.6551 -89.4243,-43.7756 -188.0975,-70.8909 -288.1156,-70.0349 z"
           id="path217499"
           transform="scale(0.26458333)" />
        <path
           style="fill:#f2ff7a;fill-opacity:0.8;stroke:none;stroke-width:10.7432;stroke-linecap:round;stroke-linejoin:round;stroke-dasharray:none;stroke-opacity:1"
           d="m 982.11826,1195.3022 c -84.81144,1.3176 -168.8277,22.3702 -246.0931,56.8778 -52.21128,24.0471 -102.43125,52.3944 -149.23934,85.8116 -16.99694,12.112 -34.29896,24.2564 -50.23663,37.5395 -0.11044,3.5884 1.3e-4,12.3019 5.50095,10.4181 73.34791,-56.2076 153.35738,-104.965 240.67965,-136.0686 99.00898,-36.1989 207.58153,-47.2521 311.47371,-28.7897 126.5802,21.6516 243.3483,82.6695 344.9388,159.6894 3.425,1.2026 8.0772,8.8615 11.252,4.4327 2.3411,-4.9291 1.5741,-10.8949 -3.6504,-13.6267 -98.5835,-76.536 -211.3003,-138.3799 -334.2631,-164.2085 -42.7982,-9.0508 -86.6864,-12.1138 -130.36254,-12.0756 z"
           id="path217501"
           transform="scale(0.26458333)" />
        <path
           style="fill:#f2ff7a;fill-opacity:0.8;stroke:none;stroke-width:10.7432;stroke-linecap:round;stroke-linejoin:round;stroke-dasharray:none;stroke-opacity:1"
           d="m 989.51801,1164.9924 c -116.67099,0.1399 -230.63406,38.3861 -330.80929,96.6103 -40.06757,23.5172 -78.76716,49.5638 -115.2294,78.3614 -6.91111,4.9054 -7.94815,15.238 -6.11273,22.773 5.15403,2.7514 9.97269,-4.5143 14.31924,-6.4837 100.99943,-76.6775 217.30748,-137.2786 343.11284,-158.3823 112.77803,-19.3641 230.22493,-3.4634 335.96133,39.6515 76.3707,30.2381 146.1023,74.7283 212.0365,123.2243 2.6507,3.1952 9.1659,3.6415 8.7376,-1.8303 -0.1928,-7.8853 -0.5741,-17.4605 -9.0514,-20.9091 -93.2781,-70.8228 -198.043,-130.0154 -312.8492,-156.8956 -45.8749,-10.7497 -92.9813,-16.3844 -140.11549,-16.1195 z"
           id="path217503"
           transform="scale(0.26458333)" />
        <path
           style="fill:#f2ff7a;fill-opacity:0.8;stroke:none;stroke-width:10.7432;stroke-linecap:round;stroke-linejoin:round;stroke-dasharray:none;stroke-opacity:1"
           d="m 988.36807,1128.3135 c -123.00344,0.6002 -242.67752,43.102 -346.77836,106.8522 -35.27332,21.9285 -70.10488,45.0204 -101.75315,71.978 -3.76226,7.2381 -3.01471,16.4598 -2.15519,24.4002 3.22538,4.4753 8.34966,-2.9156 11.82664,-4.1491 67.88677,-51.0125 141.11784,-95.9337 220.93984,-125.7034 55.70369,-20.7254 114.29083,-35.4773 173.4285,-40.1544 48.81355,-1.8364 98.12035,-3.0263 146.32145,5.9457 118.8296,19.3408 228.9537,74.8956 326.3937,144.04 10.9941,7.3774 21.0797,16.606 32.3838,23.1512 5.0419,-8.4132 1.9249,-19.7534 -0.396,-28.6699 -95.9228,-74.2742 -204.5851,-135.2876 -323.6539,-162.4274 -44.7406,-10.2613 -90.636,-15.6667 -136.55733,-15.2631 z"
           id="path217505"
           transform="scale(0.26458333)" />
        <path
           style="fill:#f2ff7a;fill-opacity:0.8;stroke:none;stroke-width:10.7432;stroke-linecap:round;stroke-linejoin:round;stroke-dasharray:none;stroke-opacity:1"
           d="m 983.51952,1106.3452 c -68.36743,-0.3682 -136.00297,15.035 -200.22348,37.6273 -86.45586,31.2288 -166.47835,78.8517 -238.35329,135.8451 -4.95565,4.0142 -11.54302,12.1394 -6.96691,18.3906 6.34961,-1.056 11.08285,-8.0777 16.85649,-11.0921 103.89119,-78.7153 224.40958,-139.6506 354.30614,-158.1953 48.61686,-7.5277 98.20423,-6.1515 147.18393,-2.7868 82.108,9.0319 161.9318,35.045 235.3801,72.6798 54.0299,26.9015 104.2405,60.7879 152.929,96.3457 2.0221,2.4029 7.8471,3.8375 6.961,-0.9698 -1.4639,-13.4256 -16.1153,-18.9266 -24.9224,-27.0309 -49.7434,-36.8642 -102.5506,-69.7188 -158.7648,-95.8105 -71.4601,-34.8887 -149.3976,-57.0113 -228.6656,-63.7908 -18.5484,-1.1239 -37.1421,-1.3333 -55.72018,-1.2123 z"
           id="path217507"
           transform="scale(0.26458333)" />
        <path
           style="fill:#f2ff7a;fill-opacity:0.8;stroke:none;stroke-width:10.7432;stroke-linecap:round;stroke-linejoin:round;stroke-dasharray:none;stroke-opacity:1"
           d="m 983.91298,1076.3451 c -61.1758,-0.631 -121.84256,11.6916 -179.94239,30.1493 -94.43547,30.8378 -180.95298,82.4053 -259.1321,143.0939 -7.8198,5.0106 -11.01575,17.1492 -5.66448,24.7655 5.38868,0.6293 8.83927,-6.5809 13.59139,-8.4918 79.89612,-59.5737 167.64211,-110.2012 263.52033,-138.9706 105.97902,-32.7066 220.69717,-35.4346 327.94057,-7.1182 108.6426,27.8616 208.2948,83.8896 297.5642,150.9696 2.5234,2.2185 9.8367,6.7263 10.0152,0.3617 0.1878,-8.3777 -2.0272,-17.3829 -9.6311,-22.0672 -46.5446,-36.9861 -97.124,-68.8998 -149.8072,-96.4 -78.4181,-40.393 -164.2747,-67.5453 -252.3305,-75.1473 -18.6864,-1.0559 -37.4116,-1.2581 -56.12392,-1.1449 z"
           id="path217509"
           transform="scale(0.26458333)" />
      </g>
      <path
         style="fill:none;fill-opacity:1;stroke:#000000;stroke-width:2.187;stroke-linecap:round;stroke-linejoin:round;stroke-dasharray:none;stroke-opacity:1"
         d="m 142.20448,325.07928 c -2.74011,2.15539 -2.72845,4.15789 -5.3e-4,6.0095"
         id="path217630"
         sodipodi:nodetypes="cc" />
      <path
         style="fill:none;fill-opacity:1;stroke:#000000;stroke-width:2.187;stroke-linecap:round;stroke-linejoin:round;stroke-dasharray:none;stroke-opacity:1"
         d="m 383.84408,325.07928 c 2.23549,2.20639 1.70498,4.16133 0,6.0095"
         id="path217632"
         sodipodi:nodetypes="cc" />
      <path
         style="fill:#f2ff7a;fill-opacity:0.8;stroke:none;stroke-width:9.21651;stroke-linecap:round;stroke-linejoin:round;stroke-dasharray:none;stroke-opacity:1"
         d="m 996.17784,1053.3071 c -48.61227,-0.3459 -97.31723,4.5585 -144.46336,16.6623 -114.59733,28.2631 -219.62132,87.5101 -311.4839,160.6284 -4.58104,3.1116 -10.50207,10.0706 -4.50123,14.8183 5.42197,1.896 9.62231,-4.8917 14.02155,-7.0261 96.77317,-73.7082 207.03559,-133.0306 327.09431,-156.8526 104.6504,-20.796 214.26699,-12.3932 315.04809,22.2611 91.0335,30.6477 174.3146,80.3721 250.9069,137.6653 2.8124,2.3463 9.3124,6.427 10.3744,0.2741 0.6412,-9.0231 -9.5685,-13.791 -15.156,-19.1904 -102.2563,-77.7655 -219.6417,-140.0178 -347.3948,-161.4942 -31.1777,-5.4716 -62.788,-8.154 -94.44596,-7.7462 z"
         id="path217642"
         transform="scale(0.26458333)" />
    </g>
    <g
       id="g220053"
       transform="translate(1.2763883,-39.774427)">
      <g
         id="g220009">
        <path
           style="fill:none;fill-opacity:1;stroke:#000000;stroke-width:2;stroke-linecap:round;stroke-linejoin:round;stroke-dasharray:none;stroke-opacity:1"
           d="m 142.20383,388.12025 c 81.18337,-63.864 161.71288,-62.1564 241.63962,0"
           id="path219975"
           sodipodi:nodetypes="cc" />
        <path
           style="fill:none;fill-opacity:1;stroke:#000000;stroke-width:2;stroke-linecap:round;stroke-linejoin:round;stroke-dasharray:none;stroke-opacity:1"
           d="m 142.20383,378.66387 c 81.18337,-63.864 161.71288,-62.1564 241.63962,0"
           id="path219977"
           sodipodi:nodetypes="cc" />
        <path
           style="fill:none;fill-opacity:1;stroke:#000000;stroke-width:2;stroke-linecap:round;stroke-linejoin:round;stroke-dasharray:none;stroke-opacity:1"
           d="m 142.20383,331.0888 c 81.18337,-63.864 161.71288,-62.1564 241.63962,0"
           id="path219979"
           sodipodi:nodetypes="cc" />
        <path
           style="fill:none;fill-opacity:1;stroke:#000000;stroke-width:2;stroke-linecap:round;stroke-linejoin:round;stroke-dasharray:none;stroke-opacity:1"
           d="m 142.20383,339.07065 c 81.18337,-63.864 161.71288,-62.1564 241.63962,0"
           id="path219981"
           sodipodi:nodetypes="cc" />
        <path
           style="fill:none;fill-opacity:1;stroke:#000000;stroke-width:2;stroke-linecap:round;stroke-linejoin:round;stroke-dasharray:none;stroke-opacity:1"
           d="m 142.20383,345.04844 c 81.18337,-63.864 161.71288,-62.1564 241.63962,0"
           id="path219983"
           sodipodi:nodetypes="cc" />
        <path
           style="fill:none;fill-opacity:1;stroke:#000000;stroke-width:2;stroke-linecap:round;stroke-linejoin:round;stroke-dasharray:none;stroke-opacity:1"
           d="m 142.20383,354.71832 c 81.18337,-63.864 161.71288,-62.1564 241.63962,0"
           id="path219985"
           sodipodi:nodetypes="cc" />
        <path
           style="fill:none;fill-opacity:1;stroke:#000000;stroke-width:2;stroke-linecap:round;stroke-linejoin:round;stroke-dasharray:none;stroke-opacity:1"
           d="m 142.20383,362.70017 c 81.18337,-63.864 161.71288,-62.1564 241.63962,0"
           id="path219987"
           sodipodi:nodetypes="cc" />
        <path
           style="fill:none;fill-opacity:1;stroke:#000000;stroke-width:2;stroke-linecap:round;stroke-linejoin:round;stroke-dasharray:none;stroke-opacity:1"
           d="m 142.20383,368.67796 c 81.18337,-63.864 161.71288,-62.1564 241.63962,0"
           id="path219989"
           sodipodi:nodetypes="cc" />
        <path
           style="fill:none;fill-opacity:1;stroke:#000000;stroke-width:2;stroke-linecap:round;stroke-linejoin:round;stroke-dasharray:none;stroke-opacity:1"
           d="m 142.20383,331.08878 c -1.70649,2.85817 -0.90622,5.42615 0,7.98187 -1.72632,3.39149 -0.87965,4.698 0,5.97779 -1.71467,4.21576 -0.89532,6.96481 0,9.66988 -1.29195,3.10929 -1.37419,5.79847 0,7.98185 -1.62871,0.41462 -1.00593,3.0106 0,5.97778 -1.79233,4.58062 -0.78753,7.20738 0,9.98591 -1.68496,4.71256 -0.93452,7.16971 0,9.45639"
           id="path219991"
           sodipodi:nodetypes="cccccccc" />
        <path
           style="fill:none;fill-opacity:1;stroke:#000000;stroke-width:2;stroke-linecap:round;stroke-linejoin:round;stroke-dasharray:none;stroke-opacity:1"
           d="m 383.84345,331.08878 c 1.04927,3.08076 1.59319,5.95917 0,7.98187 0.8035,1.9926 1.78119,3.98519 0,5.97779 1.20321,3.22329 1.45832,6.44659 0,9.66988 1.11738,2.66062 1.53522,5.32123 0,7.98185 1.39371,0.37775 1.2718,2.5116 0,5.97778 1.83542,4.78943 0.72414,7.2336 0,9.98591 1.69644,5.38444 0.9195,7.51421 0,9.45639"
           id="path219993"
           sodipodi:nodetypes="cccccccc" />
        <path
           style="fill:#f2ff7a;fill-opacity:0.8;stroke:none;stroke-width:8.26583;stroke-linecap:round;stroke-linejoin:round;stroke-dasharray:none;stroke-opacity:1"
           d="m 988.55969,1256.0303 c -112.36098,0.4487 -222.39218,35.9392 -319.61841,90.9372 -43.56475,24.6748 -85.44892,52.4869 -124.62042,83.6719 -8.04931,6.8465 -8.50189,19.3492 -5.67437,28.7498 4.06405,1.8452 7.26676,-4.8217 10.88508,-6.0853 80.64497,-61.3563 170.03833,-112.825 267.55588,-141.8903 102.17907,-31.4526 212.69265,-34.6762 316.50185,-9.4196 112.7835,26.8055 216.1404,83.6705 307.8799,153.4379 2.2834,1.2049 7.3757,6.5617 8.9504,2.1506 0.6775,-8.197 1.0636,-17.9253 -4.1688,-24.7904 -18.5475,-15.9904 -39.1714,-29.4912 -59.2219,-43.5281 -117.2511,-79.3599 -255.1198,-134.8489 -398.46921,-133.2337 z"
           id="path219995"
           transform="scale(0.26458333)" />
        <path
           style="fill:#f2ff7b;fill-opacity:0.802353;stroke:none;stroke-width:10.7432;stroke-linecap:round;stroke-linejoin:round;stroke-dasharray:none;stroke-opacity:1"
           d="m 990.0638,1217.6943 c -125.43691,0.3614 -247.5974,43.9174 -353.29506,109.6757 -33.69278,20.8958 -66.27547,43.867 -97.18603,68.5504 -2.7465,8.5665 -4.84358,19.1217 -0.61939,27.4845 4.83499,2.0226 8.52248,-5.1163 12.72083,-6.8306 102.65219,-77.6117 220.82214,-139.609 349.0927,-159.4442 108.19515,-17.2416 220.51995,-2.6262 322.26965,37.8913 80.1185,31.1974 154.1365,76.5209 222.5297,128.3225 6.227,2.6948 5.8296,-6.6267 5.7116,-10.3825 0.02,-7.5345 -0.1433,-16.3598 -7.6434,-20.5771 -51.0644,-40.7998 -106.8556,-75.7419 -165.465,-104.6551 -89.4243,-43.7756 -188.0975,-70.8909 -288.1156,-70.0349 z"
           id="path219997"
           transform="scale(0.26458333)" />
        <path
           style="fill:#f5ff7a;fill-opacity:0.8;stroke:none;stroke-width:10.7432;stroke-linecap:round;stroke-linejoin:round;stroke-dasharray:none;stroke-opacity:1"
           d="m 982.11826,1195.3022 c -84.81144,1.3176 -168.8277,22.3702 -246.0931,56.8778 -52.21128,24.0471 -102.43125,52.3944 -149.23934,85.8116 -16.99694,12.112 -34.29896,24.2564 -50.23663,37.5395 -0.11044,3.5884 1.3e-4,12.3019 5.50095,10.4181 73.34791,-56.2076 153.35738,-104.965 240.67965,-136.0686 99.00898,-36.1989 207.58153,-47.2521 311.47371,-28.7897 126.5802,21.6516 243.3483,82.6695 344.9388,159.6894 3.425,1.2026 8.0772,8.8615 11.252,4.4327 2.3411,-4.9291 1.5741,-10.8949 -3.6504,-13.6267 -98.5835,-76.536 -211.3003,-138.3799 -334.2631,-164.2085 -42.7982,-9.0508 -86.6864,-12.1138 -130.36254,-12.0756 z"
           id="path219999"
           transform="scale(0.26458333)" />
        <path
           style="fill:#f2ff7b;fill-opacity:0.802353;stroke:none;stroke-width:10.7432;stroke-linecap:round;stroke-linejoin:round;stroke-dasharray:none;stroke-opacity:1"
           d="m 989.51801,1164.9924 c -116.67099,0.1399 -230.63406,38.3861 -330.80929,96.6103 -40.06757,23.5172 -78.76716,49.5638 -115.2294,78.3614 -6.91111,4.9054 -7.94815,15.238 -6.11273,22.773 5.15403,2.7514 9.97269,-4.5143 14.31924,-6.4837 100.99943,-76.6775 217.30748,-137.2786 343.11284,-158.3823 112.77803,-19.3641 230.22493,-3.4634 335.96133,39.6515 76.3707,30.2381 146.1023,74.7283 212.0365,123.2243 2.6507,3.1952 9.1659,3.6415 8.7376,-1.8303 -0.1928,-7.8853 -0.5741,-17.4605 -9.0514,-20.9091 -93.2781,-70.8228 -198.043,-130.0154 -312.8492,-156.8956 -45.8749,-10.7497 -92.9813,-16.3844 -140.11549,-16.1195 z"
           id="path220001"
           transform="scale(0.26458333)" />
        <path
           style="fill:#f5ff7a;fill-opacity:0.8;stroke:none;stroke-width:10.7432;stroke-linecap:round;stroke-linejoin:round;stroke-dasharray:none;stroke-opacity:1"
           d="m 988.36807,1128.3135 c -123.00344,0.6002 -242.67752,43.102 -346.77836,106.8522 -35.27332,21.9285 -70.10488,45.0204 -101.75315,71.978 -3.76226,7.2381 -3.01471,16.4598 -2.15519,24.4002 3.22538,4.4753 8.34966,-2.9156 11.82664,-4.1491 67.88677,-51.0125 141.11784,-95.9337 220.93984,-125.7034 55.70369,-20.7254 114.29083,-35.4773 173.4285,-40.1544 48.81355,-1.8364 98.12035,-3.0263 146.32145,5.9457 118.8296,19.3408 228.9537,74.8956 326.3937,144.04 10.9941,7.3774 21.0797,16.606 32.3838,23.1512 5.0419,-8.4132 1.9249,-19.7534 -0.396,-28.6699 -95.9228,-74.2742 -204.5851,-135.2876 -323.6539,-162.4274 -44.7406,-10.2613 -90.636,-15.6667 -136.55733,-15.2631 z"
           id="path220003"
           transform="scale(0.26458333)" />
        <path
           style="fill:#f2ff7b;fill-opacity:0.802353;stroke:none;stroke-width:10.7432;stroke-linecap:round;stroke-linejoin:round;stroke-dasharray:none;stroke-opacity:1"
           d="m 983.51952,1106.3452 c -68.36743,-0.3682 -136.00297,15.035 -200.22348,37.6273 -86.45586,31.2288 -166.47835,78.8517 -238.35329,135.8451 -4.95565,4.0142 -11.54302,12.1394 -6.96691,18.3906 6.34961,-1.056 11.08285,-8.0777 16.85649,-11.0921 103.89119,-78.7153 224.40958,-139.6506 354.30614,-158.1953 48.61686,-7.5277 98.20423,-6.1515 147.18393,-2.7868 82.108,9.0319 161.9318,35.045 235.3801,72.6798 54.0299,26.9015 104.2405,60.7879 152.929,96.3457 2.0221,2.4029 7.8471,3.8375 6.961,-0.9698 -1.4639,-13.4256 -16.1153,-18.9266 -24.9224,-27.0309 -49.7434,-36.8642 -102.5506,-69.7188 -158.7648,-95.8105 -71.4601,-34.8887 -149.3976,-57.0113 -228.6656,-63.7908 -18.5484,-1.1239 -37.1421,-1.3333 -55.72018,-1.2123 z"
           id="path220005"
           transform="scale(0.26458333)" />
        <path
           style="fill:#f5ff7a;fill-opacity:0.8;stroke:none;stroke-width:10.7432;stroke-linecap:round;stroke-linejoin:round;stroke-dasharray:none;stroke-opacity:1"
           d="m 983.91298,1076.3451 c -61.1758,-0.631 -121.84256,11.6916 -179.94239,30.1493 -94.43547,30.8378 -180.95298,82.4053 -259.1321,143.0939 -7.8198,5.0106 -11.01575,17.1492 -5.66448,24.7655 5.38868,0.6293 8.83927,-6.5809 13.59139,-8.4918 79.89612,-59.5737 167.64211,-110.2012 263.52033,-138.9706 105.97902,-32.7066 220.69717,-35.4346 327.94057,-7.1182 108.6426,27.8616 208.2948,83.8896 297.5642,150.9696 2.5234,2.2185 9.8367,6.7263 10.0152,0.3617 0.1878,-8.3777 -2.0272,-17.3829 -9.6311,-22.0672 -46.5446,-36.9861 -97.124,-68.8998 -149.8072,-96.4 -78.4181,-40.393 -164.2747,-67.5453 -252.3305,-75.1473 -18.6864,-1.0559 -37.4116,-1.2581 -56.12392,-1.1449 z"
           id="path220007"
           transform="scale(0.26458333)" />
      </g>
      <g
         id="g220045"
         transform="translate(6.4711492e-4,-63.040967)">
        <path
           style="fill:none;fill-opacity:1;stroke:#000000;stroke-width:2;stroke-linecap:round;stroke-linejoin:round;stroke-dasharray:none;stroke-opacity:1"
           d="m 142.20383,388.12025 c 81.18337,-63.864 161.71288,-62.1564 241.63962,0"
           id="path220011"
           sodipodi:nodetypes="cc" />
        <path
           style="fill:none;fill-opacity:1;stroke:#000000;stroke-width:2;stroke-linecap:round;stroke-linejoin:round;stroke-dasharray:none;stroke-opacity:1"
           d="m 142.20383,378.66387 c 81.18337,-63.864 161.71288,-62.1564 241.63962,0"
           id="path220013"
           sodipodi:nodetypes="cc" />
        <path
           style="fill:none;fill-opacity:1;stroke:#000000;stroke-width:2;stroke-linecap:round;stroke-linejoin:round;stroke-dasharray:none;stroke-opacity:1"
           d="m 142.20383,331.0888 c 81.18337,-63.864 161.71288,-62.1564 241.63962,0"
           id="path220015"
           sodipodi:nodetypes="cc" />
        <path
           style="fill:none;fill-opacity:1;stroke:#000000;stroke-width:2;stroke-linecap:round;stroke-linejoin:round;stroke-dasharray:none;stroke-opacity:1"
           d="m 142.20383,339.07065 c 81.18337,-63.864 161.71288,-62.1564 241.63962,0"
           id="path220017"
           sodipodi:nodetypes="cc" />
        <path
           style="fill:none;fill-opacity:1;stroke:#000000;stroke-width:2;stroke-linecap:round;stroke-linejoin:round;stroke-dasharray:none;stroke-opacity:1"
           d="m 142.20383,345.04844 c 81.18337,-63.864 161.71288,-62.1564 241.63962,0"
           id="path220019"
           sodipodi:nodetypes="cc" />
        <path
           style="fill:none;fill-opacity:1;stroke:#000000;stroke-width:2;stroke-linecap:round;stroke-linejoin:round;stroke-dasharray:none;stroke-opacity:1"
           d="m 142.20383,354.71832 c 81.18337,-63.864 161.71288,-62.1564 241.63962,0"
           id="path220021"
           sodipodi:nodetypes="cc" />
        <path
           style="fill:none;fill-opacity:1;stroke:#000000;stroke-width:2;stroke-linecap:round;stroke-linejoin:round;stroke-dasharray:none;stroke-opacity:1"
           d="m 142.20383,362.70017 c 81.18337,-63.864 161.71288,-62.1564 241.63962,0"
           id="path220023"
           sodipodi:nodetypes="cc" />
        <path
           style="fill:none;fill-opacity:1;stroke:#000000;stroke-width:2;stroke-linecap:round;stroke-linejoin:round;stroke-dasharray:none;stroke-opacity:1"
           d="m 142.20383,368.67796 c 81.18337,-63.864 161.71288,-62.1564 241.63962,0"
           id="path220025"
           sodipodi:nodetypes="cc" />
        <path
           style="fill:none;fill-opacity:1;stroke:#000000;stroke-width:2;stroke-linecap:round;stroke-linejoin:round;stroke-dasharray:none;stroke-opacity:1"
           d="m 142.20383,331.08878 c -1.70649,2.85817 -0.90622,5.42615 0,7.98187 -1.72632,3.39149 -0.87965,4.698 0,5.97779 -1.71467,4.21576 -0.89532,6.96481 0,9.66988 -1.29195,3.10929 -1.37419,5.79847 0,7.98185 -1.62871,0.41462 -1.00593,3.0106 0,5.97778 -1.79233,4.58062 -0.78753,7.20738 0,9.98591 -1.68496,4.71256 -0.93452,7.16971 0,9.45639"
           id="path220027"
           sodipodi:nodetypes="cccccccc" />
        <path
           style="fill:none;fill-opacity:1;stroke:#000000;stroke-width:2;stroke-linecap:round;stroke-linejoin:round;stroke-dasharray:none;stroke-opacity:1"
           d="m 383.84345,331.08878 c 1.04927,3.08076 1.59319,5.95917 0,7.98187 0.8035,1.9926 1.78119,3.98519 0,5.97779 1.20321,3.22329 1.45832,6.44659 0,9.66988 1.11738,2.66062 1.53522,5.32123 0,7.98185 1.39371,0.37775 1.2718,2.5116 0,5.97778 1.83542,4.78943 0.72414,7.2336 0,9.98591 1.69644,5.38444 0.9195,7.51421 0,9.45639"
           id="path220029"
           sodipodi:nodetypes="cccccccc" />
        <path
           style="fill:#f2ff7a;fill-opacity:0.8;stroke:none;stroke-width:8.26583;stroke-linecap:round;stroke-linejoin:round;stroke-dasharray:none;stroke-opacity:1"
           d="m 988.55969,1256.0303 c -112.36098,0.4487 -222.39218,35.9392 -319.61841,90.9372 -43.56475,24.6748 -85.44892,52.4869 -124.62042,83.6719 -8.04931,6.8465 -8.50189,19.3492 -5.67437,28.7498 4.06405,1.8452 7.26676,-4.8217 10.88508,-6.0853 80.64497,-61.3563 170.03833,-112.825 267.55588,-141.8903 102.17907,-31.4526 212.69265,-34.6762 316.50185,-9.4196 112.7835,26.8055 216.1404,83.6705 307.8799,153.4379 2.2834,1.2049 7.3757,6.5617 8.9504,2.1506 0.6775,-8.197 1.0636,-17.9253 -4.1688,-24.7904 -18.5475,-15.9904 -39.1714,-29.4912 -59.2219,-43.5281 -117.2511,-79.3599 -255.1198,-134.8489 -398.46921,-133.2337 z"
           id="path220031"
           transform="scale(0.26458333)" />
        <path
           style="fill:#f2ff7a;fill-opacity:0.8;stroke:none;stroke-width:10.7432;stroke-linecap:round;stroke-linejoin:round;stroke-dasharray:none;stroke-opacity:1"
           d="m 990.0638,1217.6943 c -125.43691,0.3614 -247.5974,43.9174 -353.29506,109.6757 -33.69278,20.8958 -66.27547,43.867 -97.18603,68.5504 -2.7465,8.5665 -4.84358,19.1217 -0.61939,27.4845 4.83499,2.0226 8.52248,-5.1163 12.72083,-6.8306 102.65219,-77.6117 220.82214,-139.609 349.0927,-159.4442 108.19515,-17.2416 220.51995,-2.6262 322.26965,37.8913 80.1185,31.1974 154.1365,76.5209 222.5297,128.3225 6.227,2.6948 5.8296,-6.6267 5.7116,-10.3825 0.02,-7.5345 -0.1433,-16.3598 -7.6434,-20.5771 -51.0644,-40.7998 -106.8556,-75.7419 -165.465,-104.6551 -89.4243,-43.7756 -188.0975,-70.8909 -288.1156,-70.0349 z"
           id="path220033"
           transform="scale(0.26458333)" />
        <path
           style="fill:#f2ff7a;fill-opacity:0.8;stroke:none;stroke-width:10.7432;stroke-linecap:round;stroke-linejoin:round;stroke-dasharray:none;stroke-opacity:1"
           d="m 982.11826,1195.3022 c -84.81144,1.3176 -168.8277,22.3702 -246.0931,56.8778 -52.21128,24.0471 -102.43125,52.3944 -149.23934,85.8116 -16.99694,12.112 -34.29896,24.2564 -50.23663,37.5395 -0.11044,3.5884 1.3e-4,12.3019 5.50095,10.4181 73.34791,-56.2076 153.35738,-104.965 240.67965,-136.0686 99.00898,-36.1989 207.58153,-47.2521 311.47371,-28.7897 126.5802,21.6516 243.3483,82.6695 344.9388,159.6894 3.425,1.2026 8.0772,8.8615 11.252,4.4327 2.3411,-4.9291 1.5741,-10.8949 -3.6504,-13.6267 -98.5835,-76.536 -211.3003,-138.3799 -334.2631,-164.2085 -42.7982,-9.0508 -86.6864,-12.1138 -130.36254,-12.0756 z"
           id="path220035"
           transform="scale(0.26458333)" />
        <path
           style="fill:#f2ff7a;fill-opacity:0.8;stroke:none;stroke-width:10.7432;stroke-linecap:round;stroke-linejoin:round;stroke-dasharray:none;stroke-opacity:1"
           d="m 989.51801,1164.9924 c -116.67099,0.1399 -230.63406,38.3861 -330.80929,96.6103 -40.06757,23.5172 -78.76716,49.5638 -115.2294,78.3614 -6.91111,4.9054 -7.94815,15.238 -6.11273,22.773 5.15403,2.7514 9.97269,-4.5143 14.31924,-6.4837 100.99943,-76.6775 217.30748,-137.2786 343.11284,-158.3823 112.77803,-19.3641 230.22493,-3.4634 335.96133,39.6515 76.3707,30.2381 146.1023,74.7283 212.0365,123.2243 2.6507,3.1952 9.1659,3.6415 8.7376,-1.8303 -0.1928,-7.8853 -0.5741,-17.4605 -9.0514,-20.9091 -93.2781,-70.8228 -198.043,-130.0154 -312.8492,-156.8956 -45.8749,-10.7497 -92.9813,-16.3844 -140.11549,-16.1195 z"
           id="path220037"
           transform="scale(0.26458333)" />
        <path
           style="fill:#f2ff7a;fill-opacity:0.8;stroke:none;stroke-width:10.7432;stroke-linecap:round;stroke-linejoin:round;stroke-dasharray:none;stroke-opacity:1"
           d="m 988.36807,1128.3135 c -123.00344,0.6002 -242.67752,43.102 -346.77836,106.8522 -35.27332,21.9285 -70.10488,45.0204 -101.75315,71.978 -3.76226,7.2381 -3.01471,16.4598 -2.15519,24.4002 3.22538,4.4753 8.34966,-2.9156 11.82664,-4.1491 67.88677,-51.0125 141.11784,-95.9337 220.93984,-125.7034 55.70369,-20.7254 114.29083,-35.4773 173.4285,-40.1544 48.81355,-1.8364 98.12035,-3.0263 146.32145,5.9457 118.8296,19.3408 228.9537,74.8956 326.3937,144.04 10.9941,7.3774 21.0797,16.606 32.3838,23.1512 5.0419,-8.4132 1.9249,-19.7534 -0.396,-28.6699 -95.9228,-74.2742 -204.5851,-135.2876 -323.6539,-162.4274 -44.7406,-10.2613 -90.636,-15.6667 -136.55733,-15.2631 z"
           id="path220039"
           transform="scale(0.26458333)" />
        <path
           style="fill:#f2ff7a;fill-opacity:0.8;stroke:none;stroke-width:10.7432;stroke-linecap:round;stroke-linejoin:round;stroke-dasharray:none;stroke-opacity:1"
           d="m 983.51952,1106.3452 c -68.36743,-0.3682 -136.00297,15.035 -200.22348,37.6273 -86.45586,31.2288 -166.47835,78.8517 -238.35329,135.8451 -4.95565,4.0142 -11.54302,12.1394 -6.96691,18.3906 6.34961,-1.056 11.08285,-8.0777 16.85649,-11.0921 103.89119,-78.7153 224.40958,-139.6506 354.30614,-158.1953 48.61686,-7.5277 98.20423,-6.1515 147.18393,-2.7868 82.108,9.0319 161.9318,35.045 235.3801,72.6798 54.0299,26.9015 104.2405,60.7879 152.929,96.3457 2.0221,2.4029 7.8471,3.8375 6.961,-0.9698 -1.4639,-13.4256 -16.1153,-18.9266 -24.9224,-27.0309 -49.7434,-36.8642 -102.5506,-69.7188 -158.7648,-95.8105 -71.4601,-34.8887 -149.3976,-57.0113 -228.6656,-63.7908 -18.5484,-1.1239 -37.1421,-1.3333 -55.72018,-1.2123 z"
           id="path220041"
           transform="scale(0.26458333)" />
        <path
           style="fill:#f2ff7a;fill-opacity:0.8;stroke:none;stroke-width:10.7432;stroke-linecap:round;stroke-linejoin:round;stroke-dasharray:none;stroke-opacity:1"
           d="m 983.91298,1076.3451 c -61.1758,-0.631 -121.84256,11.6916 -179.94239,30.1493 -94.43547,30.8378 -180.95298,82.4053 -259.1321,143.0939 -7.8198,5.0106 -11.01575,17.1492 -5.66448,24.7655 5.38868,0.6293 8.83927,-6.5809 13.59139,-8.4918 79.89612,-59.5737 167.64211,-110.2012 263.52033,-138.9706 105.97902,-32.7066 220.69717,-35.4346 327.94057,-7.1182 108.6426,27.8616 208.2948,83.8896 297.5642,150.9696 2.5234,2.2185 9.8367,6.7263 10.0152,0.3617 0.1878,-8.3777 -2.0272,-17.3829 -9.6311,-22.0672 -46.5446,-36.9861 -97.124,-68.8998 -149.8072,-96.4 -78.4181,-40.393 -164.2747,-67.5453 -252.3305,-75.1473 -18.6864,-1.0559 -37.4116,-1.2581 -56.12392,-1.1449 z"
           id="path220043"
           transform="scale(0.26458333)" />
      </g>
      <path
         style="fill:none;fill-opacity:1;stroke:#000000;stroke-width:2.187;stroke-linecap:round;stroke-linejoin:round;stroke-dasharray:none;stroke-opacity:1"
         d="m 142.20448,325.07928 c -2.74011,2.15539 -2.72845,4.15789 -5.3e-4,6.0095"
         id="path220047"
         sodipodi:nodetypes="cc" />
      <path
         style="fill:none;fill-opacity:1;stroke:#000000;stroke-width:2.187;stroke-linecap:round;stroke-linejoin:round;stroke-dasharray:none;stroke-opacity:1"
         d="m 383.84408,325.07928 c 2.23549,2.20639 1.70498,4.16133 0,6.0095"
         id="path220049"
         sodipodi:nodetypes="cc" />
      <path
         style="fill:#f2ff7a;fill-opacity:0.8;stroke:none;stroke-width:9.21651;stroke-linecap:round;stroke-linejoin:round;stroke-dasharray:none;stroke-opacity:1"
         d="m 996.17784,1053.3071 c -48.61227,-0.3459 -97.31723,4.5585 -144.46336,16.6623 -114.59733,28.2631 -219.62132,87.5101 -311.4839,160.6284 -4.58104,3.1116 -10.50207,10.0706 -4.50123,14.8183 5.42197,1.896 9.62231,-4.8917 14.02155,-7.0261 96.77317,-73.7082 207.03559,-133.0306 327.09431,-156.8526 104.6504,-20.796 214.26699,-12.3932 315.04809,22.2611 91.0335,30.6477 174.3146,80.3721 250.9069,137.6653 2.8124,2.3463 9.3124,6.427 10.3744,0.2741 0.6412,-9.0231 -9.5685,-13.791 -15.156,-19.1904 -102.2563,-77.7655 -219.6417,-140.0178 -347.3948,-161.4942 -31.1777,-5.4716 -62.788,-8.154 -94.44596,-7.7462 z"
         id="path220051"
         transform="scale(0.26458333)" />
    </g>
    <path
       style="fill:#f2ff7a;fill-opacity:0.8;stroke:none;stroke-width:2.187;stroke-linecap:round;stroke-linejoin:round;stroke-dasharray:none;stroke-opacity:1"
       d="m 143.48021,348.34581 -0.28284,6.13206"
       id="path220182" />
    <path
       style="fill:none;fill-opacity:0.8;stroke:#000000;stroke-width:2.187;stroke-linecap:round;stroke-linejoin:round;stroke-dasharray:none;stroke-opacity:1"
       d="m 143.48021,348.34581 c -2.22021,3.4119 -1.04417,4.63856 -0.28284,6.13206"
       id="path220188"
       sodipodi:nodetypes="cc" />
    <path
       style="fill:none;fill-opacity:0.8;stroke:#000000;stroke-width:2.187;stroke-linecap:round;stroke-linejoin:round;stroke-dasharray:none;stroke-opacity:1"
       d="m 385.11984,348.34581 c 1.41923,2.91884 0.45565,4.46039 -0.28287,6.13203"
       id="path220190"
       sodipodi:nodetypes="cc" />
    <path
       style="fill:#f2ff7a;fill-opacity:0.8;stroke:none;stroke-width:2.50123;stroke-linecap:round;stroke-linejoin:round;stroke-dasharray:none;stroke-opacity:1"
       d="m 262.4796,301.91877 c -29.73557,-0.0651 -58.78903,9.63981 -84.51306,24.11024 -9.91355,5.55061 -19.3824,11.86493 -28.51112,18.6218 -0.19488,1.05909 -0.68294,2.65508 0.0272,3.6235 1.68717,-0.34271 2.97218,-1.96698 4.49085,-2.79193 25.46607,-18.11853 54.41715,-32.27112 85.5106,-37.0506 27.72992,-4.46415 56.45801,-0.88944 82.67459,9.09467 22.04982,8.3151 42.52148,20.54727 61.15658,34.92514 0.87109,1.17797 1.94855,-0.41172 1.71157,-1.37647 -0.0522,-2.73854 -3.10783,-3.93982 -4.84217,-5.55475 -27.98604,-20.93132 -60.26489,-37.47822 -95.21343,-42.273 -7.44543,-1.10122 -14.97357,-1.38743 -22.49159,-1.3286 z"
       id="path220192" />
    <g
       id="g221812"
       transform="translate(1.5598833,-166.17164)">
      <g
         id="g221768">
        <path
           style="fill:none;fill-opacity:1;stroke:#000000;stroke-width:2;stroke-linecap:round;stroke-linejoin:round;stroke-dasharray:none;stroke-opacity:1"
           d="m 142.20383,388.12025 c 81.18337,-63.864 161.71288,-62.1564 241.63962,0"
           id="path221734"
           sodipodi:nodetypes="cc" />
        <path
           style="fill:none;fill-opacity:1;stroke:#000000;stroke-width:2;stroke-linecap:round;stroke-linejoin:round;stroke-dasharray:none;stroke-opacity:1"
           d="m 142.20383,378.66387 c 81.18337,-63.864 161.71288,-62.1564 241.63962,0"
           id="path221736"
           sodipodi:nodetypes="cc" />
        <path
           style="fill:none;fill-opacity:1;stroke:#000000;stroke-width:2;stroke-linecap:round;stroke-linejoin:round;stroke-dasharray:none;stroke-opacity:1"
           d="m 142.20383,331.0888 c 81.18337,-63.864 161.71288,-62.1564 241.63962,0"
           id="path221738"
           sodipodi:nodetypes="cc" />
        <path
           style="fill:none;fill-opacity:1;stroke:#000000;stroke-width:2;stroke-linecap:round;stroke-linejoin:round;stroke-dasharray:none;stroke-opacity:1"
           d="m 142.20383,339.07065 c 81.18337,-63.864 161.71288,-62.1564 241.63962,0"
           id="path221740"
           sodipodi:nodetypes="cc" />
        <path
           style="fill:none;fill-opacity:1;stroke:#000000;stroke-width:2;stroke-linecap:round;stroke-linejoin:round;stroke-dasharray:none;stroke-opacity:1"
           d="m 142.20383,345.04844 c 81.18337,-63.864 161.71288,-62.1564 241.63962,0"
           id="path221742"
           sodipodi:nodetypes="cc" />
        <path
           style="fill:none;fill-opacity:1;stroke:#000000;stroke-width:2;stroke-linecap:round;stroke-linejoin:round;stroke-dasharray:none;stroke-opacity:1"
           d="m 142.20383,354.71832 c 81.18337,-63.864 161.71288,-62.1564 241.63962,0"
           id="path221744"
           sodipodi:nodetypes="cc" />
        <path
           style="fill:none;fill-opacity:1;stroke:#000000;stroke-width:2;stroke-linecap:round;stroke-linejoin:round;stroke-dasharray:none;stroke-opacity:1"
           d="m 142.20383,362.70017 c 81.18337,-63.864 161.71288,-62.1564 241.63962,0"
           id="path221746"
           sodipodi:nodetypes="cc" />
        <path
           style="fill:none;fill-opacity:1;stroke:#000000;stroke-width:2;stroke-linecap:round;stroke-linejoin:round;stroke-dasharray:none;stroke-opacity:1"
           d="m 142.20383,368.67796 c 81.18337,-63.864 161.71288,-62.1564 241.63962,0"
           id="path221748"
           sodipodi:nodetypes="cc" />
        <path
           style="fill:none;fill-opacity:1;stroke:#000000;stroke-width:2;stroke-linecap:round;stroke-linejoin:round;stroke-dasharray:none;stroke-opacity:1"
           d="m 142.20383,331.08878 c -1.70649,2.85817 -0.90622,5.42615 0,7.98187 -1.72632,3.39149 -0.87965,4.698 0,5.97779 -1.71467,4.21576 -0.89532,6.96481 0,9.66988 -1.29195,3.10929 -1.37419,5.79847 0,7.98185 -1.62871,0.41462 -1.00593,3.0106 0,5.97778 -1.79233,4.58062 -0.78753,7.20738 0,9.98591 -1.68496,4.71256 -0.93452,7.16971 0,9.45639"
           id="path221750"
           sodipodi:nodetypes="cccccccc" />
        <path
           style="fill:none;fill-opacity:1;stroke:#000000;stroke-width:2;stroke-linecap:round;stroke-linejoin:round;stroke-dasharray:none;stroke-opacity:1"
           d="m 383.84345,331.08878 c 1.04927,3.08076 1.59319,5.95917 0,7.98187 0.8035,1.9926 1.78119,3.98519 0,5.97779 1.20321,3.22329 1.45832,6.44659 0,9.66988 1.11738,2.66062 1.53522,5.32123 0,7.98185 1.39371,0.37775 1.2718,2.5116 0,5.97778 1.83542,4.78943 0.72414,7.2336 0,9.98591 1.69644,5.38444 0.9195,7.51421 0,9.45639"
           id="path221752"
           sodipodi:nodetypes="cccccccc" />
        <path
           style="fill:#f2ff7a;fill-opacity:0.8;stroke:none;stroke-width:8.26583;stroke-linecap:round;stroke-linejoin:round;stroke-dasharray:none;stroke-opacity:1"
           d="m 988.55969,1256.0303 c -112.36098,0.4487 -222.39218,35.9392 -319.61841,90.9372 -43.56475,24.6748 -85.44892,52.4869 -124.62042,83.6719 -8.04931,6.8465 -8.50189,19.3492 -5.67437,28.7498 4.06405,1.8452 7.26676,-4.8217 10.88508,-6.0853 80.64497,-61.3563 170.03833,-112.825 267.55588,-141.8903 102.17907,-31.4526 212.69265,-34.6762 316.50185,-9.4196 112.7835,26.8055 216.1404,83.6705 307.8799,153.4379 2.2834,1.2049 7.3757,6.5617 8.9504,2.1506 0.6775,-8.197 1.0636,-17.9253 -4.1688,-24.7904 -18.5475,-15.9904 -39.1714,-29.4912 -59.2219,-43.5281 -117.2511,-79.3599 -255.1198,-134.8489 -398.46921,-133.2337 z"
           id="path221754"
           transform="scale(0.26458333)" />
        <path
           style="fill:#f2ff7b;fill-opacity:0.802353;stroke:none;stroke-width:10.7432;stroke-linecap:round;stroke-linejoin:round;stroke-dasharray:none;stroke-opacity:1"
           d="m 990.0638,1217.6943 c -125.43691,0.3614 -247.5974,43.9174 -353.29506,109.6757 -33.69278,20.8958 -66.27547,43.867 -97.18603,68.5504 -2.7465,8.5665 -4.84358,19.1217 -0.61939,27.4845 4.83499,2.0226 8.52248,-5.1163 12.72083,-6.8306 102.65219,-77.6117 220.82214,-139.609 349.0927,-159.4442 108.19515,-17.2416 220.51995,-2.6262 322.26965,37.8913 80.1185,31.1974 154.1365,76.5209 222.5297,128.3225 6.227,2.6948 5.8296,-6.6267 5.7116,-10.3825 0.02,-7.5345 -0.1433,-16.3598 -7.6434,-20.5771 -51.0644,-40.7998 -106.8556,-75.7419 -165.465,-104.6551 -89.4243,-43.7756 -188.0975,-70.8909 -288.1156,-70.0349 z"
           id="path221756"
           transform="scale(0.26458333)" />
        <path
           style="fill:#f5ff7a;fill-opacity:0.8;stroke:none;stroke-width:10.7432;stroke-linecap:round;stroke-linejoin:round;stroke-dasharray:none;stroke-opacity:1"
           d="m 982.11826,1195.3022 c -84.81144,1.3176 -168.8277,22.3702 -246.0931,56.8778 -52.21128,24.0471 -102.43125,52.3944 -149.23934,85.8116 -16.99694,12.112 -34.29896,24.2564 -50.23663,37.5395 -0.11044,3.5884 1.3e-4,12.3019 5.50095,10.4181 73.34791,-56.2076 153.35738,-104.965 240.67965,-136.0686 99.00898,-36.1989 207.58153,-47.2521 311.47371,-28.7897 126.5802,21.6516 243.3483,82.6695 344.9388,159.6894 3.425,1.2026 8.0772,8.8615 11.252,4.4327 2.3411,-4.9291 1.5741,-10.8949 -3.6504,-13.6267 -98.5835,-76.536 -211.3003,-138.3799 -334.2631,-164.2085 -42.7982,-9.0508 -86.6864,-12.1138 -130.36254,-12.0756 z"
           id="path221758"
           transform="scale(0.26458333)" />
        <path
           style="fill:#f2ff7b;fill-opacity:0.802353;stroke:none;stroke-width:10.7432;stroke-linecap:round;stroke-linejoin:round;stroke-dasharray:none;stroke-opacity:1"
           d="m 989.51801,1164.9924 c -116.67099,0.1399 -230.63406,38.3861 -330.80929,96.6103 -40.06757,23.5172 -78.76716,49.5638 -115.2294,78.3614 -6.91111,4.9054 -7.94815,15.238 -6.11273,22.773 5.15403,2.7514 9.97269,-4.5143 14.31924,-6.4837 100.99943,-76.6775 217.30748,-137.2786 343.11284,-158.3823 112.77803,-19.3641 230.22493,-3.4634 335.96133,39.6515 76.3707,30.2381 146.1023,74.7283 212.0365,123.2243 2.6507,3.1952 9.1659,3.6415 8.7376,-1.8303 -0.1928,-7.8853 -0.5741,-17.4605 -9.0514,-20.9091 -93.2781,-70.8228 -198.043,-130.0154 -312.8492,-156.8956 -45.8749,-10.7497 -92.9813,-16.3844 -140.11549,-16.1195 z"
           id="path221760"
           transform="scale(0.26458333)" />
        <path
           style="fill:#f5ff7a;fill-opacity:0.8;stroke:none;stroke-width:10.7432;stroke-linecap:round;stroke-linejoin:round;stroke-dasharray:none;stroke-opacity:1"
           d="m 988.36807,1128.3135 c -123.00344,0.6002 -242.67752,43.102 -346.77836,106.8522 -35.27332,21.9285 -70.10488,45.0204 -101.75315,71.978 -3.76226,7.2381 -3.01471,16.4598 -2.15519,24.4002 3.22538,4.4753 8.34966,-2.9156 11.82664,-4.1491 67.88677,-51.0125 141.11784,-95.9337 220.93984,-125.7034 55.70369,-20.7254 114.29083,-35.4773 173.4285,-40.1544 48.81355,-1.8364 98.12035,-3.0263 146.32145,5.9457 118.8296,19.3408 228.9537,74.8956 326.3937,144.04 10.9941,7.3774 21.0797,16.606 32.3838,23.1512 5.0419,-8.4132 1.9249,-19.7534 -0.396,-28.6699 -95.9228,-74.2742 -204.5851,-135.2876 -323.6539,-162.4274 -44.7406,-10.2613 -90.636,-15.6667 -136.55733,-15.2631 z"
           id="path221762"
           transform="scale(0.26458333)" />
        <path
           style="fill:#f2ff7b;fill-opacity:0.802353;stroke:none;stroke-width:10.7432;stroke-linecap:round;stroke-linejoin:round;stroke-dasharray:none;stroke-opacity:1"
           d="m 983.51952,1106.3452 c -68.36743,-0.3682 -136.00297,15.035 -200.22348,37.6273 -86.45586,31.2288 -166.47835,78.8517 -238.35329,135.8451 -4.95565,4.0142 -11.54302,12.1394 -6.96691,18.3906 6.34961,-1.056 11.08285,-8.0777 16.85649,-11.0921 103.89119,-78.7153 224.40958,-139.6506 354.30614,-158.1953 48.61686,-7.5277 98.20423,-6.1515 147.18393,-2.7868 82.108,9.0319 161.9318,35.045 235.3801,72.6798 54.0299,26.9015 104.2405,60.7879 152.929,96.3457 2.0221,2.4029 7.8471,3.8375 6.961,-0.9698 -1.4639,-13.4256 -16.1153,-18.9266 -24.9224,-27.0309 -49.7434,-36.8642 -102.5506,-69.7188 -158.7648,-95.8105 -71.4601,-34.8887 -149.3976,-57.0113 -228.6656,-63.7908 -18.5484,-1.1239 -37.1421,-1.3333 -55.72018,-1.2123 z"
           id="path221764"
           transform="scale(0.26458333)" />
        <path
           style="fill:#f5ff7a;fill-opacity:0.8;stroke:none;stroke-width:10.7432;stroke-linecap:round;stroke-linejoin:round;stroke-dasharray:none;stroke-opacity:1"
           d="m 983.91298,1076.3451 c -61.1758,-0.631 -121.84256,11.6916 -179.94239,30.1493 -94.43547,30.8378 -180.95298,82.4053 -259.1321,143.0939 -7.8198,5.0106 -11.01575,17.1492 -5.66448,24.7655 5.38868,0.6293 8.83927,-6.5809 13.59139,-8.4918 79.89612,-59.5737 167.64211,-110.2012 263.52033,-138.9706 105.97902,-32.7066 220.69717,-35.4346 327.94057,-7.1182 108.6426,27.8616 208.2948,83.8896 297.5642,150.9696 2.5234,2.2185 9.8367,6.7263 10.0152,0.3617 0.1878,-8.3777 -2.0272,-17.3829 -9.6311,-22.0672 -46.5446,-36.9861 -97.124,-68.8998 -149.8072,-96.4 -78.4181,-40.393 -164.2747,-67.5453 -252.3305,-75.1473 -18.6864,-1.0559 -37.4116,-1.2581 -56.12392,-1.1449 z"
           id="path221766"
           transform="scale(0.26458333)" />
      </g>
      <g
         id="g221804"
         transform="translate(6.4711492e-4,-63.040967)">
        <path
           style="fill:none;fill-opacity:1;stroke:#000000;stroke-width:2;stroke-linecap:round;stroke-linejoin:round;stroke-dasharray:none;stroke-opacity:1"
           d="m 142.20383,388.12025 c 81.18337,-63.864 161.71288,-62.1564 241.63962,0"
           id="path221770"
           sodipodi:nodetypes="cc" />
        <path
           style="fill:none;fill-opacity:1;stroke:#000000;stroke-width:2;stroke-linecap:round;stroke-linejoin:round;stroke-dasharray:none;stroke-opacity:1"
           d="m 142.20383,378.66387 c 81.18337,-63.864 161.71288,-62.1564 241.63962,0"
           id="path221772"
           sodipodi:nodetypes="cc" />
        <path
           style="fill:none;fill-opacity:1;stroke:#000000;stroke-width:2;stroke-linecap:round;stroke-linejoin:round;stroke-dasharray:none;stroke-opacity:1"
           d="m 142.20383,331.0888 c 81.18337,-63.864 161.71288,-62.1564 241.63962,0"
           id="path221774"
           sodipodi:nodetypes="cc" />
        <path
           style="fill:none;fill-opacity:1;stroke:#000000;stroke-width:2;stroke-linecap:round;stroke-linejoin:round;stroke-dasharray:none;stroke-opacity:1"
           d="m 142.20383,339.07065 c 81.18337,-63.864 161.71288,-62.1564 241.63962,0"
           id="path221776"
           sodipodi:nodetypes="cc" />
        <path
           style="fill:none;fill-opacity:1;stroke:#000000;stroke-width:2;stroke-linecap:round;stroke-linejoin:round;stroke-dasharray:none;stroke-opacity:1"
           d="m 142.20383,345.04844 c 81.18337,-63.864 161.71288,-62.1564 241.63962,0"
           id="path221778"
           sodipodi:nodetypes="cc" />
        <path
           style="fill:none;fill-opacity:1;stroke:#000000;stroke-width:2;stroke-linecap:round;stroke-linejoin:round;stroke-dasharray:none;stroke-opacity:1"
           d="m 142.20383,354.71832 c 81.18337,-63.864 161.71288,-62.1564 241.63962,0"
           id="path221780"
           sodipodi:nodetypes="cc" />
        <path
           style="fill:none;fill-opacity:1;stroke:#000000;stroke-width:2;stroke-linecap:round;stroke-linejoin:round;stroke-dasharray:none;stroke-opacity:1"
           d="m 142.20383,362.70017 c 81.18337,-63.864 161.71288,-62.1564 241.63962,0"
           id="path221782"
           sodipodi:nodetypes="cc" />
        <path
           style="fill:none;fill-opacity:1;stroke:#000000;stroke-width:2;stroke-linecap:round;stroke-linejoin:round;stroke-dasharray:none;stroke-opacity:1"
           d="m 142.20383,368.67796 c 81.18337,-63.864 161.71288,-62.1564 241.63962,0"
           id="path221784"
           sodipodi:nodetypes="cc" />
        <path
           style="fill:none;fill-opacity:1;stroke:#000000;stroke-width:2;stroke-linecap:round;stroke-linejoin:round;stroke-dasharray:none;stroke-opacity:1"
           d="m 142.20383,331.08878 c -1.70649,2.85817 -0.90622,5.42615 0,7.98187 -1.72632,3.39149 -0.87965,4.698 0,5.97779 -1.71467,4.21576 -0.89532,6.96481 0,9.66988 -1.29195,3.10929 -1.37419,5.79847 0,7.98185 -1.62871,0.41462 -1.00593,3.0106 0,5.97778 -1.79233,4.58062 -0.78753,7.20738 0,9.98591 -1.68496,4.71256 -0.93452,7.16971 0,9.45639"
           id="path221786"
           sodipodi:nodetypes="cccccccc" />
        <path
           style="fill:none;fill-opacity:1;stroke:#000000;stroke-width:2;stroke-linecap:round;stroke-linejoin:round;stroke-dasharray:none;stroke-opacity:1"
           d="m 383.84345,331.08878 c 1.04927,3.08076 1.59319,5.95917 0,7.98187 0.8035,1.9926 1.78119,3.98519 0,5.97779 1.20321,3.22329 1.45832,6.44659 0,9.66988 1.11738,2.66062 1.53522,5.32123 0,7.98185 1.39371,0.37775 1.2718,2.5116 0,5.97778 1.83542,4.78943 0.72414,7.2336 0,9.98591 1.69644,5.38444 0.9195,7.51421 0,9.45639"
           id="path221788"
           sodipodi:nodetypes="cccccccc" />
        <path
           style="fill:#f2ff7a;fill-opacity:0.8;stroke:none;stroke-width:8.26583;stroke-linecap:round;stroke-linejoin:round;stroke-dasharray:none;stroke-opacity:1"
           d="m 988.55969,1256.0303 c -112.36098,0.4487 -222.39218,35.9392 -319.61841,90.9372 -43.56475,24.6748 -85.44892,52.4869 -124.62042,83.6719 -8.04931,6.8465 -8.50189,19.3492 -5.67437,28.7498 4.06405,1.8452 7.26676,-4.8217 10.88508,-6.0853 80.64497,-61.3563 170.03833,-112.825 267.55588,-141.8903 102.17907,-31.4526 212.69265,-34.6762 316.50185,-9.4196 112.7835,26.8055 216.1404,83.6705 307.8799,153.4379 2.2834,1.2049 7.3757,6.5617 8.9504,2.1506 0.6775,-8.197 1.0636,-17.9253 -4.1688,-24.7904 -18.5475,-15.9904 -39.1714,-29.4912 -59.2219,-43.5281 -117.2511,-79.3599 -255.1198,-134.8489 -398.46921,-133.2337 z"
           id="path221790"
           transform="scale(0.26458333)" />
        <path
           style="fill:#f2ff7a;fill-opacity:0.8;stroke:none;stroke-width:10.7432;stroke-linecap:round;stroke-linejoin:round;stroke-dasharray:none;stroke-opacity:1"
           d="m 990.0638,1217.6943 c -125.43691,0.3614 -247.5974,43.9174 -353.29506,109.6757 -33.69278,20.8958 -66.27547,43.867 -97.18603,68.5504 -2.7465,8.5665 -4.84358,19.1217 -0.61939,27.4845 4.83499,2.0226 8.52248,-5.1163 12.72083,-6.8306 102.65219,-77.6117 220.82214,-139.609 349.0927,-159.4442 108.19515,-17.2416 220.51995,-2.6262 322.26965,37.8913 80.1185,31.1974 154.1365,76.5209 222.5297,128.3225 6.227,2.6948 5.8296,-6.6267 5.7116,-10.3825 0.02,-7.5345 -0.1433,-16.3598 -7.6434,-20.5771 -51.0644,-40.7998 -106.8556,-75.7419 -165.465,-104.6551 -89.4243,-43.7756 -188.0975,-70.8909 -288.1156,-70.0349 z"
           id="path221792"
           transform="scale(0.26458333)" />
        <path
           style="fill:#f2ff7a;fill-opacity:0.8;stroke:none;stroke-width:10.7432;stroke-linecap:round;stroke-linejoin:round;stroke-dasharray:none;stroke-opacity:1"
           d="m 982.11826,1195.3022 c -84.81144,1.3176 -168.8277,22.3702 -246.0931,56.8778 -52.21128,24.0471 -102.43125,52.3944 -149.23934,85.8116 -16.99694,12.112 -34.29896,24.2564 -50.23663,37.5395 -0.11044,3.5884 1.3e-4,12.3019 5.50095,10.4181 73.34791,-56.2076 153.35738,-104.965 240.67965,-136.0686 99.00898,-36.1989 207.58153,-47.2521 311.47371,-28.7897 126.5802,21.6516 243.3483,82.6695 344.9388,159.6894 3.425,1.2026 8.0772,8.8615 11.252,4.4327 2.3411,-4.9291 1.5741,-10.8949 -3.6504,-13.6267 -98.5835,-76.536 -211.3003,-138.3799 -334.2631,-164.2085 -42.7982,-9.0508 -86.6864,-12.1138 -130.36254,-12.0756 z"
           id="path221794"
           transform="scale(0.26458333)" />
        <path
           style="fill:#f2ff7a;fill-opacity:0.8;stroke:none;stroke-width:10.7432;stroke-linecap:round;stroke-linejoin:round;stroke-dasharray:none;stroke-opacity:1"
           d="m 989.51801,1164.9924 c -116.67099,0.1399 -230.63406,38.3861 -330.80929,96.6103 -40.06757,23.5172 -78.76716,49.5638 -115.2294,78.3614 -6.91111,4.9054 -7.94815,15.238 -6.11273,22.773 5.15403,2.7514 9.97269,-4.5143 14.31924,-6.4837 100.99943,-76.6775 217.30748,-137.2786 343.11284,-158.3823 112.77803,-19.3641 230.22493,-3.4634 335.96133,39.6515 76.3707,30.2381 146.1023,74.7283 212.0365,123.2243 2.6507,3.1952 9.1659,3.6415 8.7376,-1.8303 -0.1928,-7.8853 -0.5741,-17.4605 -9.0514,-20.9091 -93.2781,-70.8228 -198.043,-130.0154 -312.8492,-156.8956 -45.8749,-10.7497 -92.9813,-16.3844 -140.11549,-16.1195 z"
           id="path221796"
           transform="scale(0.26458333)" />
        <path
           style="fill:#f2ff7a;fill-opacity:0.8;stroke:none;stroke-width:10.7432;stroke-linecap:round;stroke-linejoin:round;stroke-dasharray:none;stroke-opacity:1"
           d="m 988.36807,1128.3135 c -123.00344,0.6002 -242.67752,43.102 -346.77836,106.8522 -35.27332,21.9285 -70.10488,45.0204 -101.75315,71.978 -3.76226,7.2381 -3.01471,16.4598 -2.15519,24.4002 3.22538,4.4753 8.34966,-2.9156 11.82664,-4.1491 67.88677,-51.0125 141.11784,-95.9337 220.93984,-125.7034 55.70369,-20.7254 114.29083,-35.4773 173.4285,-40.1544 48.81355,-1.8364 98.12035,-3.0263 146.32145,5.9457 118.8296,19.3408 228.9537,74.8956 326.3937,144.04 10.9941,7.3774 21.0797,16.606 32.3838,23.1512 5.0419,-8.4132 1.9249,-19.7534 -0.396,-28.6699 -95.9228,-74.2742 -204.5851,-135.2876 -323.6539,-162.4274 -44.7406,-10.2613 -90.636,-15.6667 -136.55733,-15.2631 z"
           id="path221798"
           transform="scale(0.26458333)" />
        <path
           style="fill:#f2ff7a;fill-opacity:0.8;stroke:none;stroke-width:10.7432;stroke-linecap:round;stroke-linejoin:round;stroke-dasharray:none;stroke-opacity:1"
           d="m 983.51952,1106.3452 c -68.36743,-0.3682 -136.00297,15.035 -200.22348,37.6273 -86.45586,31.2288 -166.47835,78.8517 -238.35329,135.8451 -4.95565,4.0142 -11.54302,12.1394 -6.96691,18.3906 6.34961,-1.056 11.08285,-8.0777 16.85649,-11.0921 103.89119,-78.7153 224.40958,-139.6506 354.30614,-158.1953 48.61686,-7.5277 98.20423,-6.1515 147.18393,-2.7868 82.108,9.0319 161.9318,35.045 235.3801,72.6798 54.0299,26.9015 104.2405,60.7879 152.929,96.3457 2.0221,2.4029 7.8471,3.8375 6.961,-0.9698 -1.4639,-13.4256 -16.1153,-18.9266 -24.9224,-27.0309 -49.7434,-36.8642 -102.5506,-69.7188 -158.7648,-95.8105 -71.4601,-34.8887 -149.3976,-57.0113 -228.6656,-63.7908 -18.5484,-1.1239 -37.1421,-1.3333 -55.72018,-1.2123 z"
           id="path221800"
           transform="scale(0.26458333)" />
        <path
           style="fill:#f2ff7a;fill-opacity:0.8;stroke:none;stroke-width:10.7432;stroke-linecap:round;stroke-linejoin:round;stroke-dasharray:none;stroke-opacity:1"
           d="m 983.91298,1076.3451 c -61.1758,-0.631 -121.84256,11.6916 -179.94239,30.1493 -94.43547,30.8378 -180.95298,82.4053 -259.1321,143.0939 -7.8198,5.0106 -11.01575,17.1492 -5.66448,24.7655 5.38868,0.6293 8.83927,-6.5809 13.59139,-8.4918 79.89612,-59.5737 167.64211,-110.2012 263.52033,-138.9706 105.97902,-32.7066 220.69717,-35.4346 327.94057,-7.1182 108.6426,27.8616 208.2948,83.8896 297.5642,150.9696 2.5234,2.2185 9.8367,6.7263 10.0152,0.3617 0.1878,-8.3777 -2.0272,-17.3829 -9.6311,-22.0672 -46.5446,-36.9861 -97.124,-68.8998 -149.8072,-96.4 -78.4181,-40.393 -164.2747,-67.5453 -252.3305,-75.1473 -18.6864,-1.0559 -37.4116,-1.2581 -56.12392,-1.1449 z"
           id="path221802"
           transform="scale(0.26458333)" />
      </g>
      <path
         style="fill:none;fill-opacity:1;stroke:#000000;stroke-width:2.187;stroke-linecap:round;stroke-linejoin:round;stroke-dasharray:none;stroke-opacity:1"
         d="m 142.20448,325.07928 c -2.74011,2.15539 -2.72845,4.15789 -5.3e-4,6.0095"
         id="path221806"
         sodipodi:nodetypes="cc" />
      <path
         style="fill:none;fill-opacity:1;stroke:#000000;stroke-width:2.187;stroke-linecap:round;stroke-linejoin:round;stroke-dasharray:none;stroke-opacity:1"
         d="m 383.84408,325.07928 c 2.23549,2.20639 1.70498,4.16133 0,6.0095"
         id="path221808"
         sodipodi:nodetypes="cc" />
      <path
         style="fill:#f2ff7a;fill-opacity:0.8;stroke:none;stroke-width:9.21651;stroke-linecap:round;stroke-linejoin:round;stroke-dasharray:none;stroke-opacity:1"
         d="m 996.17784,1053.3071 c -48.61227,-0.3459 -97.31723,4.5585 -144.46336,16.6623 -114.59733,28.2631 -219.62132,87.5101 -311.4839,160.6284 -4.58104,3.1116 -10.50207,10.0706 -4.50123,14.8183 5.42197,1.896 9.62231,-4.8917 14.02155,-7.0261 96.77317,-73.7082 207.03559,-133.0306 327.09431,-156.8526 104.6504,-20.796 214.26699,-12.3932 315.04809,22.2611 91.0335,30.6477 174.3146,80.3721 250.9069,137.6653 2.8124,2.3463 9.3124,6.427 10.3744,0.2741 0.6412,-9.0231 -9.5685,-13.791 -15.156,-19.1904 -102.2563,-77.7655 -219.6417,-140.0178 -347.3948,-161.4942 -31.1777,-5.4716 -62.788,-8.154 -94.44596,-7.7462 z"
         id="path221810"
         transform="scale(0.26458333)" />
    </g>
    <path
       style="fill:none;fill-opacity:0.731765;stroke:#000000;stroke-width:2.187;stroke-linecap:round;stroke-linejoin:round;stroke-dasharray:none;stroke-opacity:1"
       d="m 143.76371,221.94861 c -1.18625,1.98063 -2.08006,3.66119 -0.28285,6.32477"
       id="path221994"
       sodipodi:nodetypes="cc" />
    <path
       style="fill:none;fill-opacity:0.731765;stroke:#000000;stroke-width:2.187;stroke-linecap:round;stroke-linejoin:round;stroke-dasharray:none;stroke-opacity:1"
       d="m 385.40332,221.94861 c 4.98539,3.73317 1.69349,6.34124 -0.28284,6.32479"
       id="path221996"
       sodipodi:nodetypes="cc" />
    <path
       style="fill:#f2ff7a;fill-opacity:0.8;stroke:none;stroke-width:2.47832;stroke-linecap:round;stroke-linejoin:round;stroke-dasharray:none;stroke-opacity:1"
       d="m 262.07962,175.45675 c -29.98831,0.27991 -59.28287,10.04895 -85.12201,24.89957 -10.92909,6.29607 -21.42307,13.38207 -31.31672,21.20463 -1.58953,1.03315 -2.78565,3.15385 -2.10347,5.01273 1.14598,0.49528 2.04982,-1.24252 3.05331,-1.62035 26.93417,-20.55024 57.92263,-36.95185 91.616,-42.46597 27.0331,-4.56826 55.11878,-1.64963 80.88253,7.59566 23.63041,8.29765 45.29484,21.4684 65.1791,36.52345 0.86495,1.14506 2.61345,0.77712 2.81908,-0.65587 -0.008,-2.05798 -2.32034,-3.14546 -3.59942,-4.44493 -26.04518,-20.22931 -55.96273,-36.37502 -88.48545,-42.99853 -10.8228,-2.24318 -21.8804,-3.12692 -32.92295,-3.05039 z"
       id="path222069" />
  </g>
</svg>
